<svg xmlns="http://www.w3.org/2000/svg" width="208" height="153" fill="none" viewBox="0 0 208 153"><path fill="#EBEBEB" d="M41.481 133.885 44.398 153h16.948l3.935-18.836-23.8-.279Z"/><path fill="#FAFAFA" d="M62.912 146.141c0 .055-4.345.1-9.7.1-5.355 0-9.7-.045-9.7-.1 0-.055 4.341-.099 9.7-.099 5.359 0 9.7.038 9.7.099ZM62.978 145.196c0 .055-4.373.1-9.766.1s-9.765-.045-9.765-.1c0-.055 4.372-.1 9.765-.1 5.393 0 9.766.045 9.766.1ZM62.943 144.134c0 .055-4.372.099-9.765.099-5.393 0-9.766-.044-9.766-.099 0-.055 4.373-.1 9.766-.1s9.765.045 9.765.1ZM46.347 151.907a14.773 14.773 0 0 1-.521-2.407 14.96 14.96 0 0 1-.324-2.437c.238.787.412 1.591.52 2.406.171.803.28 1.618.325 2.438ZM47.498 151.704a55.494 55.494 0 0 1-.32-4.703c.183.769.287 1.555.31 2.345.087.783.09 1.574.01 2.358ZM49.598 151.704a18.947 18.947 0 0 1-.569-4.851c.16.795.276 1.599.345 2.407.138 1.351.28 2.434.224 2.444ZM51.074 151.807a12.258 12.258 0 0 1-.234-2.448c-.06-.819-.035-1.643.076-2.458.088.814.13 1.633.124 2.451.058.817.07 1.637.034 2.455ZM53.684 151.704a13.929 13.929 0 0 1-.175-2.321c-.06-.775-.054-1.553.02-2.327.183 1.542.235 3.097.155 4.648ZM55.595 151.807a14.39 14.39 0 0 1-.083-2.406c-.025-.805.015-1.609.12-2.407.093.799.12 1.604.08 2.407.025.804-.014 1.608-.117 2.406ZM57.381 151.549c-.018-.839.03-1.678.145-2.509.051-.838.166-1.67.345-2.489a31.962 31.962 0 0 1-.486 4.998h-.004ZM59.688 151.298c.075-1.438.383-2.854.914-4.194a18.403 18.403 0 0 1-.435 2.101 19.872 19.872 0 0 1-.48 2.093Z"/><path fill="#EBEBEB" d="m58.057 96.172-.02.096c-.025.072-.05.158-.08.268l-.324 1.031c-.145.447-.318.994-.497 1.637-.18.643-.41 1.375-.61 2.179-.2.805-.448 1.699-.662 2.661a175.86 175.86 0 0 0-.652 3.077c-.407 2.18-.78 4.59-1.034 7.134-.256 2.544-.345 4.981-.393 7.195 0 1.111 0 2.163.027 3.15.028.986.073 1.901.12 2.75.05.849.118 1.595.17 2.259.052.663.107 1.234.162 1.701.055.468.086.812.11 1.073 0 .113.02.206.024.282a.292.292 0 0 1 0 .096.34.34 0 0 1-.02-.096c0-.072-.028-.165-.045-.275-.038-.261-.086-.619-.148-1.073a34.536 34.536 0 0 1-.197-1.698c-.059-.667-.152-1.42-.2-2.259-.048-.839-.117-1.757-.141-2.75-.025-.994-.045-2.042-.052-3.153.024-2.221.134-4.661.383-7.219.248-2.558.637-4.965 1.055-7.148.227-1.086.43-2.124.69-3.094.258-.969.458-1.853.69-2.661.23-.808.447-1.536.64-2.176.194-.64.373-1.183.532-1.626.158-.444.268-.77.344-1.031a7.35 7.35 0 0 1 .097-.262.34.34 0 0 1 .03-.068Z"/><path fill="#EBEBEB" d="M54.995 108.008a6.283 6.283 0 0 1 2.638-3.321c.417-.258.948-.467 1.38-.254.589.285.637 1.114.461 1.746a4.637 4.637 0 0 1-1.917 2.606 3.909 3.909 0 0 1-2.88.722M53.967 115.998c.438-1.65 1.759-3.995 3.128-5.016.21-.171.45-.3.71-.378a.827.827 0 0 1 .762.165c.28.268.252.718.17 1.093a6.644 6.644 0 0 1-1.766 3.182 6.676 6.676 0 0 1-3.18 1.782M53.684 123.032a9.627 9.627 0 0 1 3.156-3.957 1.505 1.505 0 0 1 1.1-.392c.6.11.872.839.817 1.444-.107 1.244-1.062 2.241-2.045 3.015-1.059.832-2.92 1.495-2.92 1.495M53.843 128.089a9.327 9.327 0 0 1 2.686-3.049c.238-.175.513-.293.804-.344a.813.813 0 0 1 .79.299c.268.395 0 .928-.276 1.306a7.621 7.621 0 0 1-3.831 2.802M53.709 126.037a29.475 29.475 0 0 0-3.838-3.902c-.221-.183-.493-.375-.766-.289a.57.57 0 0 0-.345.515c-.004.222.046.442.145.64a7.425 7.425 0 0 0 4.945 4.146M53.833 119.453l-3.017-3.665a3.56 3.56 0 0 0-.98-.931 1.236 1.236 0 0 0-.643-.179c-.227 0-.449.061-.643.179a1.217 1.217 0 0 0-.414 1.21c.11.435.311.843.59 1.196.587.9 1.33 1.689 2.196 2.328.887.608 1.694 1.003 2.76.845M54.25 112.044a10.47 10.47 0 0 0-3.035-4.541 1.768 1.768 0 0 0-.79-.461c-.606-.117-1.189.389-1.378.97a2.486 2.486 0 0 0 .276 1.99c.369.588.852 1.096 1.42 1.496a12.093 12.093 0 0 0 3.355 1.805M55.457 105.44c-.293-2.124-1.404-3.895-2.69-5.614-.269-.364-.648-.746-1.096-.688a.868.868 0 0 0-.628.54c-.1.272-.142.561-.12.849a6.55 6.55 0 0 0 1.25 3.574 6.58 6.58 0 0 0 3.022 2.291M56.302 102.068a17.49 17.49 0 0 1-.11-3.287 5.854 5.854 0 0 1 1.093-3.063 2.555 2.555 0 0 1 1.096-.87 1.384 1.384 0 0 1 1.345.179 1.462 1.462 0 0 1 .459 1.179 3.671 3.671 0 0 1-.345 1.258c-.804 1.929-2.142 4.064-3.542 4.604"/><path fill="#E0E0E0" d="M43.16 104.601c.009.09.009.179 0 .269v.77c0 .316 0 .746.021 1.22.02.474 0 1.031.055 1.616.055 1.193.17 2.616.345 4.187.176 1.571.466 3.287.835 5.075a58.414 58.414 0 0 0 1.282 4.984 46.826 46.826 0 0 0 1.38 3.975c.206.563.42 1.062.596 1.502.176.44.345.818.476 1.124.131.306.224.53.303.712.04.08.07.164.094.251a1.275 1.275 0 0 1-.131-.237l-.345-.688c-.145-.302-.321-.688-.504-1.11-.182-.423-.413-.935-.627-1.496a54.526 54.526 0 0 1-2.71-8.969c-.383-1.791-.614-3.528-.783-5.102a55.219 55.219 0 0 1-.307-4.205c-.031-.598-.024-1.141-.031-1.616-.007-.474 0-.886 0-1.223 0-.337.02-.575.027-.77a1.141 1.141 0 0 1 .024-.269Z"/><path fill="#E0E0E0" d="M43.633 113.313c.02-1.037.4-2.035 1.076-2.823a1.076 1.076 0 0 1 .893-.474c.465.069.69.622.69 1.09a3.299 3.299 0 0 1-.742 2.186c-.433.59-1.08.988-1.803 1.111M44.657 118.982c-.059-1.217.345-3.094 1.034-4.084.106-.163.243-.304.404-.413a.6.6 0 0 1 .555-.051.84.84 0 0 1 .345.711 4.741 4.741 0 0 1-2.297 4.439M45.981 123.826a6.866 6.866 0 0 1 1.297-3.373 1.074 1.074 0 0 1 .651-.501c.431-.055.773.385.866.807.196.87-.238 1.754-.742 2.489a9.056 9.056 0 0 1-1.665 1.647M47.181 127.233c.19-.959.59-1.865 1.172-2.651.123-.172.283-.315.47-.416a.593.593 0 0 1 .306-.067c.106.007.21.042.297.102.269.209.21.625.093.949a5.436 5.436 0 0 1-2.003 2.729M46.647 125.858a21.284 21.284 0 0 0-3.449-1.833.621.621 0 0 0-.582-.031.412.412 0 0 0-.128.427c.046.15.127.287.234.402a5.324 5.324 0 0 0 4.262 1.764M45.312 121.358l-2.848-1.85a2.57 2.57 0 0 0-.866-.419.877.877 0 0 0-.476.01.88.88 0 0 0-.403.254.873.873 0 0 0-.02.915c.17.272.396.506.661.687a6.32 6.32 0 0 0 2 1.111c.735.227 1.38.32 2.07 0M43.998 116.232a7.521 7.521 0 0 0-3.048-2.445 1.283 1.283 0 0 0-.638-.141.944.944 0 0 0-.734.956 1.786 1.786 0 0 0 .617 1.286c.378.32.816.562 1.29.712.858.309 1.76.481 2.672.512M43.391 111.467c-.658-1.375-1.796-2.352-3.04-3.246a.926.926 0 0 0-.898-.226.633.633 0 0 0-.31.501c-.01.207.024.413.1.606a4.703 4.703 0 0 0 1.626 2.164 4.72 4.72 0 0 0 2.553.912M43.236 108.988a12.366 12.366 0 0 1-.782-2.214 4.168 4.168 0 0 1 .082-2.317c.107-.324.303-.611.566-.829a.99.99 0 0 1 .955-.168 1.057 1.057 0 0 1 .566.688c.069.305.083.621.04.931-.13 1.485-.582 3.225-1.42 3.892"/><path fill="#EBEBEB" d="M64.588 104.416c.016.088.024.178.024.268 0 .196 0 .45.028.77.027.32.02.746 0 1.224-.021.478 0 1.031-.028 1.616a53.745 53.745 0 0 1-.31 4.204 54.39 54.39 0 0 1-.821 5.095 55.747 55.747 0 0 1-1.303 4.999 47.668 47.668 0 0 1-1.41 3.971c-.215.56-.439 1.055-.625 1.495-.186.44-.345.811-.507 1.111-.162.299-.252.519-.345.687-.037.081-.08.159-.127.234.02-.087.052-.171.093-.251.076-.182.176-.416.303-.712.128-.295.297-.687.473-1.124.176-.437.393-.938.596-1.502.435-1.114.9-2.462 1.38-3.974.479-1.513.9-3.198 1.279-4.985.38-1.788.641-3.507.834-5.075.194-1.567.3-2.991.345-4.187.038-.598.042-1.138.059-1.616.017-.478.02-.883 0-1.22-.02-.337 0-.575 0-.77.011-.088.032-.175.062-.258Z"/><path fill="#EBEBEB" d="M64.115 113.138a4.463 4.463 0 0 0-1.079-2.823 1.08 1.08 0 0 0-.893-.474c-.465.068-.69.622-.69 1.089-.022.795.243 1.57.745 2.187a2.79 2.79 0 0 0 1.804 1.11M63.102 118.79c.055-1.217-.345-3.095-1.035-4.085a1.44 1.44 0 0 0-.403-.412.591.591 0 0 0-.552-.052.838.838 0 0 0-.345.712c-.07.879.108 1.76.513 2.544a4.748 4.748 0 0 0 1.78 1.894M61.764 123.64a6.901 6.901 0 0 0-1.293-3.372 1.086 1.086 0 0 0-.666-.502c-.43-.055-.772.385-.869.808-.193.87.242 1.753.742 2.489a9.084 9.084 0 0 0 1.665 1.647M60.564 127.051a6.624 6.624 0 0 0-1.17-2.654 1.374 1.374 0 0 0-.472-.416.583.583 0 0 0-.603.034c-.266.21-.207.626-.093.949a5.443 5.443 0 0 0 2.003 2.73M61.098 125.679a21.503 21.503 0 0 1 3.448-1.832.623.623 0 0 1 .583-.031.399.399 0 0 1 .131.426c-.048.15-.13.287-.238.402a5.325 5.325 0 0 1-4.262 1.764M62.436 121.172l2.845-1.85c.26-.191.553-.334.865-.419a.888.888 0 0 1 .88.265.862.862 0 0 1 .02.914c-.169.274-.395.508-.662.688a6.432 6.432 0 0 1-1.996 1.114c-.735.223-1.38.319-2.07 0M63.75 116.039a7.53 7.53 0 0 1 3.048-2.444c.197-.103.417-.151.638-.141a.944.944 0 0 1 .731.956 1.755 1.755 0 0 1-.617 1.296 3.79 3.79 0 0 1-1.286.715 8.821 8.821 0 0 1-2.676.509M64.353 111.281c.659-1.375 1.797-2.348 3.045-3.245.262-.189.604-.368.893-.227a.629.629 0 0 1 .328.516c.007.206-.028.412-.103.605a4.69 4.69 0 0 1-1.624 2.165 4.717 4.717 0 0 1-2.552.912M64.509 108.806c.329-.713.592-1.454.786-2.214.19-.766.16-1.57-.086-2.321a1.807 1.807 0 0 0-.559-.828.973.973 0 0 0-.952-.165 1.035 1.035 0 0 0-.569.687c-.067.306-.08.621-.041.932.13 1.485.583 3.225 1.42 3.895M39.536 130.1v3.579a1.403 1.403 0 0 0 .873 1.3c.172.071.356.107.541.106h24.541a1.411 1.411 0 0 0 1.41-1.406V130.1H39.537Z"/><path fill="#E0E0E0" d="m41.664 135.085.203 1.138 22.645 1.609.576-2.747H41.664Z"/><path fill="#F5F5F5" d="m45.736 48.189-5.172-2.118s-1.786 4.329-6.328 2.555a4.512 4.512 0 0 1-2.17-1.69 4.49 4.49 0 0 1-.781-2.632 4.973 4.973 0 0 1 2.09-4.022c1.468-1.083 3.989-1.75 7.22.292l4.734-11.476-5.113-2.097-2.807 6.807s-7.931-1.09-11.176 6.787c-3.104 7.535 3.214 12.173 6.741 13.62 2.224.908 9.11 3.108 12.762-6.026ZM43.137 19.755l-1.992 4.83 5.19 2.127 1.991-4.83-5.189-2.127Z"/><path fill="#E0E0E0" d="m43.984 47.474-5.172-2.118s-1.786 4.325-6.327 2.554a4.516 4.516 0 0 1-2.17-1.69 4.493 4.493 0 0 1-.782-2.631 4.969 4.969 0 0 1 2.093-4.022c1.469-1.083 3.931-1.606 7.162.436l4.793-11.62-5.11-2.097-2.807 6.807s-7.931-1.09-11.183 6.776c-3.103 7.536 2.952 12.074 5.862 13.253 2.21.911 10 3.473 13.641-5.648ZM41.388 19.028l-1.992 4.83 5.189 2.127 1.992-4.83-5.19-2.127Z"/><path fill="#F5F5F5" d="m168.056 136.388-3.203.265s.224 2.681-2.569 2.963a2.614 2.614 0 0 1-2.652-1.444 2.876 2.876 0 0 1 0-2.606c.469-.938 1.587-1.939 3.776-1.739l-.589-7.117-3.173.265.345 4.218s-4.348 1.517-3.941 6.398c.389 4.672 4.848 5.398 7.034 5.216 1.397-.103 5.503-.791 4.972-6.419ZM162.607 123.089l-3.228.258.241 3.004 3.228-.257-.241-3.005Z"/><path fill="#E0E0E0" d="m166.97 136.471-3.207.268s.224 2.681-2.569 2.96a2.595 2.595 0 0 1-2.648-1.441 2.864 2.864 0 0 1 0-2.606c.469-.938 1.593-1.849 3.793-1.65l-.6-7.219-3.169.264.345 4.219s-4.348 1.512-3.941 6.398c.389 4.672 4.682 5.411 6.479 5.26 1.386-.1 6.048-.819 5.517-6.453ZM161.38 122.312l-3.217.266.25 2.995 3.216-.267-.249-2.994Z"/><path fill="#F5F5F5" d="m149.439 20.49 6.349-2.5s-2.107-5.314 3.396-7.59a5.532 5.532 0 0 1 6.269 1.32 6.082 6.082 0 0 1 1.579 5.294c-.376 2.194-2.027 4.91-6.603 5.845l5.583 14.095 6.279-2.472-3.328-8.364s7.931-5.735 4.09-15.409c-3.669-9.255-13.172-8-17.507-6.291-2.724 1.072-10.652 4.95-6.107 16.072ZM173.531 37.39l-6.373 2.51 2.35 5.931 6.372-2.51-2.349-5.93Z"/><path fill="#E0E0E0" d="m146.894 21.487 6.352-2.5s-2.107-5.314 3.397-7.59a5.53 5.53 0 0 1 6.269 1.31 6.101 6.101 0 0 1 1.579 5.304c-.355 2.194-2.079 4.73-6.666 5.666l5.656 14.27 6.275-2.471-3.31-8.361s7.907-5.735 4.072-15.395c-3.665-9.283-12.841-8.141-16.406-6.738-2.735 1.072-11.749 5.383-7.218 16.505ZM170.999 38.385l-6.373 2.51 2.35 5.93 6.373-2.509-2.35-5.931Z"/><path fill="#fff" d="M97.95 13.078C98.532 6.514 93.657.72 87.06.136 80.464-.448 74.642 4.4 74.058 10.966c-.584 6.564 4.29 12.358 10.888 12.942 6.598.584 12.42-4.265 13.004-10.83Z"/><path fill="#E0E0E0" d="m93.705 21.177.148-.123.421-.396.31-.285c.11-.107.221-.237.345-.375l.397-.44c.144-.172.28-.35.407-.536a11.29 11.29 0 0 0 1.613-3.056c.516-1.448.745-2.983.673-4.518 0-.213-.024-.43-.035-.646-.01-.217-.065-.433-.096-.657-.031-.223-.055-.443-.114-.663-.059-.22-.114-.444-.169-.688l-.197-.636V8.12c-.079-.223-.162-.45-.24-.687-.08-.237-.208-.44-.311-.664-.1-.228-.216-.45-.345-.663a11.504 11.504 0 0 0-.841-1.28c-.16-.202-.307-.419-.48-.618l-.741-.801-.08-.076-.303-.268c-.207-.175-.407-.364-.62-.536A12.725 12.725 0 0 0 90.532.839c-.273-.107-.552-.19-.828-.289-.138-.041-.276-.1-.417-.134l-.455-.041A10.132 10.132 0 0 0 87.419.12l-.72-.09-.777-.03h-.227l-.462.024-.462.028-.459.065-.462.072-.231.034-.228.055-1.693.513-.117.041a12.87 12.87 0 0 0-3.314 1.96 12.79 12.79 0 0 0-2.517 2.911l-.055.097c-.22.436-.583 1.148-.807 1.585l-.093.213-.076.22-.152.464-.148.44-.104.45-.106.447-.052.224-.104.766-.065.719a9.893 9.893 0 0 0 0 1.43l.024.44c0 .148.041.292.059.437.048.289.082.577.141.86.121.557.281 1.107.48 1.643.197.523.427 1.034.689 1.53.131.24.283.467.42.687l.211.344.062.09.659.865c.169.207.344.389.53.581.348.37.72.714 1.114 1.032.187.171.382.332.587.481.203.138.396.289.603.416l.628.361.62.316.635.282c.208.088.421.165.638.23.21.07.42.145.627.207l.635.148c1.504.338 3.059.382 4.58.13a11.35 11.35 0 0 0 3.3-1.052c.205-.09.405-.193.6-.306l.503-.309c.155-.096.303-.182.43-.268l.346-.258.448-.344c.103-.079.151-.124.151-.124l-.158.114-.459.344c-.103.072-.214.158-.345.247-.13.09-.275.169-.43.265l-.508.302c-.195.11-.397.21-.603.3-1.035.497-2.14.835-3.276 1.003-1.51.241-3.053.19-4.545-.15l-.627-.138c-.21-.062-.414-.138-.624-.207-.21-.068-.428-.13-.631-.23l-.628-.282-.593-.302h-.028l-.617-.344c-.207-.127-.396-.279-.596-.416a6.04 6.04 0 0 1-.59-.447c-.39-.318-.758-.663-1.1-1.032-.172-.189-.345-.37-.524-.574l-.652-.863a.763.763 0 0 1-.059-.085l-.21-.344c-.134-.23-.286-.454-.414-.688a12.64 12.64 0 0 1-.662-1.512c-.2-.544-.36-1.101-.48-1.668-.058-.278-.089-.564-.137-.85-.017-.143-.052-.284-.059-.429l-.017-.44c-.038-.59-.038-1.18 0-1.77.041-.296.083-.592.12-.89l.032-.224.155-.66.107-.447.145-.433.148-.437.076-.217.093-.213.81-1.585.052-.086A11.784 11.784 0 0 1 81.633.976l.11-.04 1.68-.506.223-.059.228-.034.459-.069.451-.069.914-.048h.452l.9.035c.589.06 1.173.16 1.748.299l.428.1c.141.03.276.089.413.13.273.096.552.179.818.282.523.216 1.031.468 1.52.753.48.273.941.579 1.38.914.213.169.41.344.614.53l.303.265.076.072.734.79c.173.196.321.413.48.612.306.41.584.84.834 1.286.127.213.242.432.345.657.1.22.217.433.307.656l.241.67c.042.11.083.22.12.345v.03c.084.327.166.65.25.967.061.22.075.443.116.66.042.216.07.436.097.65.028.213.024.43.035.639a11.752 11.752 0 0 1-.645 4.486 11.33 11.33 0 0 1-1.583 3.05c-.145.189-.255.385-.4.54l-.386.402c-.121.137-.228.268-.345.378l-.304.289-.413.388c-.083.103-.128.151-.128.151Z"/><path fill="#fff" d="M96.226 27.764a1.954 1.954 0 0 1-1.732.769 1.958 1.958 0 0 1-1.572-1.057 1.922 1.922 0 0 1 .18-2.043 1.952 1.952 0 0 1 2.7-.35 1.945 1.945 0 0 1 .424 2.681Z"/><path fill="#E0E0E0" d="M95.915 28.088s.038-.021.1-.073c.093-.077.176-.165.249-.26a1.97 1.97 0 0 0-.593-2.892 1.956 1.956 0 0 0-1.138-.268 1.993 1.993 0 0 0-1.828 1.526 1.99 1.99 0 0 0 1.517 2.42c.44.096.9.036 1.3-.168.109-.053.21-.12.3-.2.066-.051.097-.082.093-.085-.003-.004-.141.106-.417.233-.393.179-.835.22-1.255.12a1.899 1.899 0 0 1-1.434-1.546 1.87 1.87 0 0 1 1.734-2.163c.37-.026.741.06 1.062.248a1.874 1.874 0 0 1 .94 1.722c-.017.361-.136.71-.343 1.007-.16.262-.3.368-.287.379ZM82.33 10.063h1.806a1.533 1.533 0 0 1 .979-1.438c.192-.076.397-.111.604-.106a1.469 1.469 0 0 1 1.42.935 1.614 1.614 0 0 1-.13 1.461c-.307.506-.98.966-2.2.753v4.074h1.79v-2.406a3.497 3.497 0 0 0 1.834-1.28 3.479 3.479 0 0 0 .679-2.127c0-2.644-2.376-3.256-3.393-3.256-.776.017-3.424.203-3.39 3.39ZM86.622 16.581h-1.817v1.695h1.817V16.58ZM61.54 61.102h1.813a1.531 1.531 0 0 1 .979-1.438c.192-.076.398-.111.604-.106a1.468 1.468 0 0 1 1.417.932 1.608 1.608 0 0 1-.127 1.464c-.307.506-.983.966-2.204.75v4.074h1.793v-2.386a3.496 3.496 0 0 0 1.835-1.28 3.48 3.48 0 0 0 .68-2.127c0-2.644-2.377-3.26-3.394-3.26-.78 0-3.43.19-3.396 3.377ZM65.836 67.62H64.02v1.695h1.817V67.62ZM142.857 74.32l-2.031-1.285s-1.087 1.719-2.88.608a1.94 1.94 0 0 1-.927-2.063 2.148 2.148 0 0 1 1.189-1.55c.707-.344 1.793-.385 3.011.722l2.91-4.573-2.01-1.275-1.707 2.681s-3.283-1.058-5.259 2.04c-1.89 2.966.345 5.342 1.483 6.067.872.56 3.983 2.231 6.221-1.372ZM143.909 62.06l-1.211 1.9 2.04 1.293 1.211-1.901-2.04-1.292ZM62.312 10.82l-1.686.663a1.527 1.527 0 0 1-.9 2.014 1.467 1.467 0 0 1-1.666-.344 1.61 1.61 0 0 1-.417-1.406c.1-.584.555-1.258 1.773-1.505L57.912 6.46l-1.665.656.879 2.197a3.489 3.489 0 0 0-1.083 4.091c.973 2.458 3.41 2.16 4.355 1.788.724-.275 3.12-1.41 1.914-4.373ZM57.016 3.982l-1.69.67.63 1.576 1.69-.67-.63-1.576Z"/><path fill="#263238" d="M177.988 152.144c0 .048-34.138.089-76.262.089s-76.269-.041-76.269-.089c0-.048 34.138-.089 76.269-.089 42.131 0 76.262.037 76.262.089Z"/><path fill="#fff" d="M78.136 37.716c.788-6.327-3.718-12.094-10.064-12.88-6.346-.785-12.13 3.707-12.918 10.034-.788 6.327 3.717 12.093 10.064 12.88 6.346.785 12.13-3.707 12.918-10.034Z"/><path fill="#263238" d="M78.222 36.287v-.186c0-.123 0-.312-.02-.55l-.017-.405c0-.148-.042-.31-.066-.485s-.055-.364-.083-.564c-.027-.2-.096-.409-.145-.633a10.89 10.89 0 0 0-1.268-3.094 11.47 11.47 0 0 0-2.942-3.3l-.5-.375c-.176-.117-.362-.223-.545-.343a7.078 7.078 0 0 0-.565-.344l-.604-.293-.306-.144-.325-.117-.651-.24c-.225-.076-.456-.124-.69-.186a6.963 6.963 0 0 0-.69-.162c-.486-.09-.978-.148-1.472-.171-.252 0-.504-.035-.759-.032l-.769.038c-.13 0-.262 0-.39.024l-.389.059c-.259.041-.52.072-.783.127-.526.116-1.045.266-1.551.45-.522.186-1.03.407-1.521.664-.245.13-.483.285-.728.43-.117.075-.244.14-.344.227l-.345.254c-.464.344-.905.717-1.321 1.117l-.593.65-.148.165-.135.175-.265.344-.27.344-.468.763-.118.196-.1.203c-.13.272-.265.543-.396.818-.131.275-.21.57-.317.86a11.49 11.49 0 0 0 0 7.33c.107.288.21.573.317.859l.393.821.1.203.352.578.238.381.265.344.27.344.134.179.148.161.593.65c.415.401.856.775 1.32 1.117l.346.258c.113.086.24.151.344.227.245.141.48.296.728.43.49.256.999.478 1.52.663.507.185 1.026.335 1.552.45.262.056.524.083.783.128l.39.058c.13.018.258 0 .39.024l.768.038c.255 0 .51-.02.759-.03.494-.024.986-.082 1.472-.172.233-.042.463-.096.69-.162.231-.065.462-.114.69-.186l.651-.24.325-.117.306-.148.604-.289c.2-.093.38-.223.565-.344.187-.12.37-.22.545-.343l.504-.375a11.504 11.504 0 0 0 2.938-3.3c.579-.961 1.007-2.005 1.268-3.095.06-.208.108-.42.145-.632.028-.203.059-.392.083-.568.024-.175.052-.343.066-.484.013-.141 0-.282.017-.403 0-.24.017-.422.02-.55.004-.127 0-.189 0-.189v.19c0 .123-.017.309-.034.546 0 .12 0 .255-.024.406-.024.151-.045.306-.073.481-.027.175-.058.344-.09.56a5.344 5.344 0 0 1-.15.63c-.27 1.08-.7 2.112-1.28 3.063a11.437 11.437 0 0 1-2.952 3.348l-.496.371c-.176.114-.363.22-.542.344-.18.124-.365.234-.565.327l-.597.285-.303.145-.321.116-.648.234c-.221.073-.452.12-.69.183a6.81 6.81 0 0 1-.69.158 11.2 11.2 0 0 1-1.458.168c-.248 0-.497.031-.752.028l-.762-.042c-.128 0-.255 0-.383-.024l-.386-.058c-.255-.041-.517-.072-.772-.124a11.868 11.868 0 0 1-1.538-.45 12.259 12.259 0 0 1-1.5-.657c-.245-.134-.476-.285-.718-.43-.117-.075-.244-.137-.344-.223l-.345-.255c-.46-.339-.897-.709-1.307-1.106l-.573-.64-.148-.162-.13-.175-.532-.688-.23-.378-.232-.381-.117-.19-.097-.202-.393-.808-.31-.853a11.343 11.343 0 0 1 0-7.24l.314-.852c.13-.269.258-.54.39-.808l.1-.2.113-.192.231-.379.235-.378.262-.343.265-.344.131-.175.148-.162.587-.643c.41-.397.845-.767 1.303-1.107l.345-.251c.11-.086.238-.151.345-.227.241-.14.472-.296.717-.426.485-.252.986-.472 1.5-.657a11.874 11.874 0 0 1 1.538-.45c.255-.052.517-.083.772-.124l.387-.058c.127-.018.255-.018.382-.028l.762-.038c.256 0 .504.02.752.028.49.024.977.08 1.459.168.233.04.463.092.69.158.227.062.458.11.69.183l.647.233.318.117.306.145.597.285c.2.09.376.22.562.323.186.103.369.217.545.344l.496.368a11.535 11.535 0 0 1 2.935 3.262c.579.951 1.01 1.984 1.28 3.064.062.206.112.416.151.629.031.203.062.388.09.563.027.176.058.344.072.482.014.137.017.282.024.405.017.238.028.42.035.547l.007.141Z"/><path fill="#fff" d="M82.626 43.544a1.874 1.874 0 0 1-1.162 1.735 1.888 1.888 0 0 1-2.052-.407 1.875 1.875 0 0 1 1.331-3.205 1.884 1.884 0 0 1 1.74 1.159c.095.227.143.472.143.718Z"/><path fill="#263238" d="M82.626 43.544v-.12a1.457 1.457 0 0 0-.038-.344 1.856 1.856 0 0 0-.69-1.065 1.917 1.917 0 0 0-.796-.386 1.979 1.979 0 0 0-1.035.08 1.927 1.927 0 0 0-.91.687 1.935 1.935 0 0 0 0 2.3c.227.316.544.556.91.688a1.92 1.92 0 0 0 2.527-1.358c.027-.113.04-.228.039-.344v-.12s0 .168-.086.453a1.849 1.849 0 0 1-2.418 1.248 1.785 1.785 0 0 1-.84-.632 1.801 1.801 0 0 1 0-2.139c.21-.289.503-.51.84-.632.307-.113.637-.142.959-.086a1.858 1.858 0 0 1 1.459 1.337c.072.265.065.433.079.433Z"/><path fill="#fff" d="M142.398 55.84c6.812-.865 11.632-7.071 10.765-13.863-.866-6.792-7.091-11.597-13.904-10.733-6.812.864-11.632 7.07-10.766 13.862.867 6.792 7.092 11.597 13.905 10.733Z"/><path fill="#263238" d="M128.391 43.551v-.203c0-.134 0-.343.024-.587l.018-.437c0-.158.045-.344.072-.52.028-.175.055-.391.09-.608.037-.232.089-.461.155-.687a11.745 11.745 0 0 1 1.362-3.318 12.389 12.389 0 0 1 3.155-3.544l.538-.402c.19-.124.39-.238.586-.344.197-.107.393-.255.611-.344l.644-.31.345-.158.345-.127.69-.258c.238-.079.489-.13.734-.2.249-.07.501-.128.755-.171.522-.097 1.05-.159 1.58-.186.272 0 .541-.037.817-.034l.828.041c.137 0 .275 0 .417.028l.417.062c.276.044.559.079.841.134.565.127 1.121.289 1.666.485.56.2 1.105.438 1.631.715.265.14.521.305.779.46.131.083.266.152.39.244l.365.275c.501.368.975.769 1.421 1.2l.638.688.159.175.144.19.573.762.255.413.252.413.124.206.107.216c.141.293.283.588.427.88.145.293.225.616.345.925a12.27 12.27 0 0 1 0 7.87c-.114.309-.224.618-.345.924l-.424.88-.107.217-.127.206-.252.416-.252.41-.289.381-.287.385-.144.19-.159.175-.638.687c-.446.43-.92.83-1.417 1.2l-.369.275c-.124.09-.259.161-.386.24-.262.155-.518.324-.78.465a13.33 13.33 0 0 1-1.634.711c-.545.2-1.102.361-1.669.485-.279.059-.562.09-.841.134l-.414.066c-.142.017-.28.017-.421.023l-.824.042c-.276 0-.548-.024-.817-.031a11.91 11.91 0 0 1-1.58-.19 6.181 6.181 0 0 1-.755-.171c-.248-.069-.496-.12-.734-.2l-.69-.257-.345-.124-.345-.158-.648-.313c-.214-.1-.407-.237-.607-.344a6.935 6.935 0 0 1-.586-.36l-.538-.403a12.346 12.346 0 0 1-3.158-3.545 11.743 11.743 0 0 1-1.359-3.317 5.576 5.576 0 0 1-.155-.688c-.035-.216-.062-.42-.09-.605-.027-.186-.059-.344-.072-.522-.014-.18 0-.303-.018-.434 0-.257-.017-.453-.024-.59-.007-.138 0-.2 0-.2s0 .069.018.2c.017.13.024.343.037.587 0 .13.018.275.028.433.01.158.048.344.076.52l.096.601c.035.213.107.44.163.688.291 1.159.756 2.268 1.379 3.29a12.336 12.336 0 0 0 3.152 3.503l.534.395c.186.124.386.237.583.344.195.125.396.24.603.344l.642.306.344.154.345.128.69.25c.238.08.486.131.731.197.246.07.496.127.748.168a11.6 11.6 0 0 0 1.562.182c.269 0 .538.035.807.031l.821-.044c.134 0 .276 0 .41-.025l.414-.065c.276-.045.555-.076.831-.134a13.09 13.09 0 0 0 1.652-.481c.552-.2 1.09-.436 1.61-.709.262-.14.514-.306.772-.457.125-.082.263-.151.38-.24l.365-.272c.493-.366.962-.763 1.404-1.19l.627-.687.159-.172.424-.567.286-.378.249-.406.248-.41.124-.202.107-.217c.138-.288.279-.577.417-.87.138-.292.224-.608.345-.91.405-1.259.618-2.57.634-3.892a13.073 13.073 0 0 0-.638-3.888l-.344-.911c-.142-.293-.28-.581-.421-.87l-.103-.217-.125-.203-.251-.409-.249-.405-.565-.757-.141-.185-.159-.176-.628-.687c-.441-.425-.91-.822-1.403-1.186l-.366-.272c-.12-.093-.255-.162-.379-.24-.259-.155-.51-.317-.772-.461a13.502 13.502 0 0 0-3.262-1.186c-.276-.059-.556-.09-.831-.138l-.411-.062c-.138-.017-.276-.017-.414-.027l-.82-.041c-.269 0-.538.02-.804.03-.525.024-1.048.085-1.565.183a5.513 5.513 0 0 0-.749.168c-.244.065-.493.117-.731.193l-.689.254-.345.124-.345.154-.641.306c-.214.1-.404.238-.604.344-.2.107-.393.23-.582.344l-.535.399a12.374 12.374 0 0 0-3.152 3.503 11.912 11.912 0 0 0-1.379 3.287c-.055.24-.134.46-.162.687-.028.227-.066.416-.097.605-.031.19-.058.344-.075.516-.018.172-.021.306-.028.433l-.038.588c-.003.138-.014.206-.014.206Z"/><path fill="#fff" d="M123.664 51.342a2.012 2.012 0 0 0 1.248 1.867 2.03 2.03 0 0 0 2.207-.437 2.018 2.018 0 0 0 .438-2.2 2.028 2.028 0 0 0-3.3-.653c-.379.377-.592.889-.593 1.423Z"/><path fill="#263238" d="M123.664 51.342a.541.541 0 0 1 0-.128c-.002-.125.012-.25.041-.37a2.035 2.035 0 0 1 1.604-1.54 2.093 2.093 0 0 1 1.913.593 2.07 2.07 0 0 1 .529 1.928 2.087 2.087 0 0 1-3.322 1.15 1.995 1.995 0 0 1-.731-1.145 1.519 1.519 0 0 1-.041-.368.57.57 0 0 1 0-.13c.017 0 0 .178.093.484.119.43.379.81.738 1.076a1.967 1.967 0 0 0 1.855.268c.364-.133.679-.372.903-.687a1.925 1.925 0 0 0 0-2.297 1.912 1.912 0 0 0-.903-.687 2 2 0 0 0-1.034-.09 1.97 1.97 0 0 0-.828.344 2.007 2.007 0 0 0-.738 1.076c-.069.344-.062.523-.079.523Z"/><path fill="#fff" d="M122.596 26.063c5.515-2.164 8.223-8.384 6.048-13.893-2.174-5.509-8.407-8.22-13.922-6.057-5.515 2.164-8.223 8.384-6.049 13.893 2.174 5.509 8.408 8.22 13.923 6.057Z"/><path fill="#263238" d="m114.378 25.905.162.065.475.186.345.137c.131.041.28.076.438.12l.514.138c.197.049.396.086.597.113 1.025.18 2.071.202 3.103.066a10.725 10.725 0 0 0 3.91-1.259l.507-.285c.162-.107.324-.227.486-.344.163-.117.345-.223.49-.343l.473-.406.434-.41.024-.027c.148-.151.297-.31.445-.464.148-.155.272-.344.41-.512a5.5 5.5 0 0 0 .393-.567c.257-.379.487-.774.69-1.183.1-.21.217-.416.307-.633l.345-.914.038-.1.093-.344c.058-.237.131-.47.183-.711.095-.49.158-.987.189-1.485.035-.51.035-1.023 0-1.534-.02-.258-.065-.515-.1-.773-.02-.13-.027-.261-.058-.392l-.094-.385a8.9 8.9 0 0 0-.344-1.23c-.08-.2-.162-.4-.242-.603l-.317-.632-.103-.179-.204-.344-.207-.343-.238-.344-.362-.516-.138-.162-1.089-1.148-.08-.075a10.723 10.723 0 0 0-6.255-2.71h-1.907l-.21.031-.414.055-.414.059-.403.096-.6.145-.659.223-.607.237a9.706 9.706 0 0 0-1.148.574l-.345.2c-.113.065-.217.148-.324.22-.214.154-.431.299-.638.457a11.79 11.79 0 0 0-2.086 2.197c-.141.2-.265.412-.396.619l-.194.306a.702.702 0 0 0-.048.086c-.145.295-.289.584-.434.873-.097.216-.169.44-.252.656a9.864 9.864 0 0 0-.397 1.314 5.42 5.42 0 0 0-.124.656c-.031.217-.076.433-.093.65-.017.217-.027.433-.038.646v.626c0 .21.017.416.024.622.007.207.052.403.073.602.02.2.052.392.086.585l.134.563c.331 1.338.916 2.6 1.725 3.717a10.22 10.22 0 0 0 2.169 2.214c.155.123.317.238.486.343l.451.282c.142.083.269.169.39.234l.345.165.462.22.159.072-.152-.082-.455-.234-.345-.168c-.121-.07-.248-.155-.386-.241l-.449-.282a5.948 5.948 0 0 1-.479-.344c-.812-.64-1.523-1.4-2.107-2.252a10.6 10.6 0 0 1-1.724-3.692c-.045-.186-.09-.371-.131-.56-.041-.19-.055-.385-.083-.581a6.008 6.008 0 0 1-.069-.598c0-.2-.017-.406-.024-.612-.007-.207 0-.433 0-.595v-.031l.042-.636c.017-.217.062-.426.093-.643.029-.219.071-.436.124-.65.107-.445.244-.883.41-1.31.083-.213.155-.436.252-.646.141-.289.286-.577.431-.87 0-.027.031-.055.048-.082.062-.1.128-.2.19-.303.131-.203.255-.412.396-.612.291-.398.608-.777.949-1.134.348-.37.721-.714 1.117-1.032.203-.158.421-.299.631-.45.107-.072.207-.158.321-.22l.344-.196c.461-.26.938-.49 1.428-.687l.766-.258.193-.066.196-.048.397-.093.4-.096.41-.055.407-.058.207-.028h1.886a10.581 10.581 0 0 1 6.179 2.678l.076.073 1.08 1.137.137.159.118.168.241.344.235.344.406.687.101.176.082.185c.114.244.224.488.345.732.187.495.341 1.002.462 1.517l.09.381c.031.127.038.258.058.385.035.258.08.512.1.767.037.505.037 1.011 0 1.516-.029.493-.09.983-.182 1.468-.052.24-.121.471-.18.688l-.093.343a.692.692 0 0 1-.027.09l-.345.907c-.09.217-.204.42-.3.626-.204.407-.434.8-.69 1.176-.12.185-.251.363-.393.533-.134.172-.262.343-.403.508l-.442.465-.217.227-.021.02-.689.588c-.152.134-.328.237-.487.344-.158.106-.32.234-.482.344l-.5.285a10.621 10.621 0 0 1-3.866 1.323 10.182 10.182 0 0 1-3.086-.044 5.47 5.47 0 0 1-.593-.103l-.514-.134c-.158-.042-.307-.073-.438-.114l-.345-.13-.482-.172-.162-.055ZM43.75 88.289l.162.065.476.186.345.137c.13.041.28.076.438.12l.514.138c.196.049.395.086.596.113a10.22 10.22 0 0 0 3.104.066c1.372-.164 2.7-.592 3.91-1.259l.507-.285c.162-.106.324-.227.486-.344.162-.117.345-.223.49-.344l.472-.405.435-.41.024-.027c.148-.151.296-.31.445-.464.148-.155.272-.344.41-.512.142-.181.274-.37.393-.567.256-.379.486-.774.69-1.183.1-.21.217-.416.306-.633l.345-.914.038-.1.093-.344c.059-.237.131-.47.183-.711.095-.49.158-.987.19-1.485a11.37 11.37 0 0 0 0-1.534c-.02-.258-.066-.515-.1-.773-.02-.13-.028-.261-.059-.392l-.093-.385c-.085-.418-.2-.83-.345-1.231-.079-.2-.162-.399-.241-.602l-.317-.632-.104-.179-.203-.344-.207-.344-.238-.343-.362-.516-.138-.162-1.09-1.148-.079-.076a10.726 10.726 0 0 0-6.255-2.709h-1.907l-.21.031-.414.055-.414.059-.403.096-.6.144-.66.224-.606.237a9.652 9.652 0 0 0-1.148.574l-.345.2c-.114.065-.217.148-.324.22-.214.154-.431.299-.638.457a11.757 11.757 0 0 0-2.086 2.197c-.142.2-.266.412-.397.619l-.193.306a.689.689 0 0 0-.048.085c-.145.296-.29.585-.435.874-.096.216-.169.44-.251.656a9.848 9.848 0 0 0-.397 1.314 5.365 5.365 0 0 0-.124.656c-.031.217-.076.434-.093.65-.017.217-.028.433-.038.646v.626c0 .21.017.416.024.622.007.207.052.403.072.602.021.2.052.392.087.584l.134.564c.33 1.338.915 2.6 1.724 3.717.606.843 1.338 1.59 2.17 2.214.154.123.317.238.485.343l.452.282c.142.083.27.169.39.234l.345.165.462.22.158.072-.151-.082-.456-.234-.345-.168c-.12-.07-.248-.155-.386-.241l-.448-.282a5.826 5.826 0 0 1-.48-.344 10.23 10.23 0 0 1-2.106-2.252 10.592 10.592 0 0 1-1.724-3.692 26.88 26.88 0 0 1-.131-.56c-.042-.19-.055-.385-.083-.581a5.666 5.666 0 0 1-.069-.599c0-.199-.017-.405-.024-.611-.007-.207 0-.434 0-.595v-.031l.041-.636c.017-.217.062-.426.093-.643.03-.219.071-.436.124-.65.107-.445.244-.883.41-1.31.084-.213.156-.436.252-.646.142-.289.287-.578.432-.87 0-.027.03-.055.048-.082.062-.1.127-.2.19-.303.13-.203.255-.412.396-.612.29-.398.608-.777.948-1.134.348-.37.722-.714 1.117-1.032.204-.158.421-.299.632-.45.106-.072.206-.158.32-.22l.345-.196c.46-.26.937-.49 1.428-.688l.765-.257.193-.066.197-.048.396-.093.4-.096.41-.055.408-.058.207-.028h1.886a10.584 10.584 0 0 1 6.179 2.678l.076.073 1.08 1.137.137.159.117.168.242.344.234.344.407.687.1.175.083.186c.114.244.224.488.345.732.186.495.34 1.002.462 1.516l.09.382c.03.127.037.258.058.385.035.258.08.512.1.767.036.505.036 1.011 0 1.516-.029.493-.09.983-.183 1.468-.052.24-.12.47-.18.688l-.092.343a.7.7 0 0 1-.028.09l-.345.907c-.09.217-.203.42-.3.626-.203.407-.434.8-.69 1.176-.12.185-.25.363-.392.533-.135.172-.262.343-.404.508l-.441.465-.217.226-.021.021-.69.588c-.151.134-.327.237-.486.344-.159.106-.32.234-.483.344l-.5.285a10.626 10.626 0 0 1-3.865 1.323 10.187 10.187 0 0 1-3.086-.044 5.415 5.415 0 0 1-.593-.103l-.514-.134c-.159-.042-.307-.073-.438-.114l-.345-.13-.483-.172-.162-.055ZM159.965 101.746l.14.056.409.16.296.119c.113.036.24.065.377.104l.441.119c.169.042.341.074.513.098a8.744 8.744 0 0 0 2.668.056 9.199 9.199 0 0 0 3.361-1.086l.436-.246c.14-.092.279-.196.418-.297.14-.101.297-.193.421-.296l.406-.35.374-.354.021-.023c.127-.13.254-.267.382-.4.127-.134.234-.297.353-.443.122-.156.235-.32.338-.49a8.75 8.75 0 0 0 .592-1.02c.086-.18.187-.359.264-.546l.297-.789.032-.086.08-.296c.051-.205.113-.407.157-.614.082-.424.137-.852.163-1.282.03-.44.03-.883 0-1.323-.017-.222-.056-.445-.085-.667-.018-.113-.024-.226-.051-.339l-.08-.332a7.66 7.66 0 0 0-.296-1.062c-.069-.172-.14-.344-.208-.52l-.273-.545-.089-.154-.174-.297-.178-.296-.205-.297-.311-.445-.119-.14-.936-.99-.068-.066a9.21 9.21 0 0 0-5.378-2.337h-1.639l-.181.026-.356.048-.355.05-.347.083-.516.125-.566.193-.522.204a8.364 8.364 0 0 0-.987.496l-.296.172c-.098.056-.187.127-.279.19-.184.133-.37.258-.548.394a10.143 10.143 0 0 0-1.794 1.896c-.121.172-.228.356-.341.534l-.166.264a.675.675 0 0 0-.041.074c-.125.255-.249.505-.374.754-.083.186-.145.38-.216.566-.14.37-.254.748-.341 1.133a4.733 4.733 0 0 0-.107.567c-.026.187-.065.374-.08.56-.014.188-.023.375-.032.559v.54c0 .18.015.358.02.536.006.178.045.347.063.52.018.172.044.338.074.504l.115.486a9.253 9.253 0 0 0 1.483 3.207 8.823 8.823 0 0 0 1.864 1.911c.134.106.273.206.418.296l.388.243c.122.072.232.146.335.202l.297.143.397.189.136.063-.13-.071-.391-.202-.297-.146c-.103-.059-.213-.133-.332-.207l-.385-.243a5.001 5.001 0 0 1-.412-.297 8.784 8.784 0 0 1-1.811-1.943 9.143 9.143 0 0 1-1.482-3.186c-.039-.16-.078-.32-.113-.484-.036-.163-.048-.332-.071-.501a4.97 4.97 0 0 1-.06-.516c0-.172-.014-.35-.02-.528-.006-.178 0-.374 0-.514v-.026l.035-.55c.015-.186.054-.367.08-.554.026-.189.061-.376.107-.56.092-.385.21-.763.353-1.13.071-.185.133-.377.216-.558.122-.25.246-.499.371-.751 0-.024.026-.047.041-.071.054-.086.11-.172.163-.261.113-.175.22-.356.341-.528.25-.344.522-.671.815-.98.3-.318.62-.615.961-.89.175-.136.361-.257.542-.388.092-.062.178-.136.276-.19l.296-.169c.396-.224.806-.422 1.228-.593l.658-.223.166-.056.169-.041.34-.08.344-.084.353-.047.35-.05.178-.024h1.621a9.082 9.082 0 0 1 5.312 2.31l.065.063.928.982.119.136.101.146.207.296.202.297.349.593.086.152.072.16c.097.21.192.421.296.632.161.427.293.864.397 1.308l.077.33c.027.109.033.222.051.332.029.222.068.442.086.661.031.436.031.873 0 1.308a9.988 9.988 0 0 1-.157 1.267c-.045.208-.104.406-.155.593l-.08.297a.679.679 0 0 1-.023.077l-.297.783c-.077.187-.175.362-.258.54a8.86 8.86 0 0 1-.593 1.015c-.103.16-.216.313-.337.46-.116.148-.226.296-.347.439l-.38.4-.186.196-.018.018-.593.507c-.131.116-.282.205-.418.297s-.276.201-.415.296l-.43.246a9.118 9.118 0 0 1-3.323 1.143 8.74 8.74 0 0 1-2.653-.039 4.649 4.649 0 0 1-.51-.089l-.441-.116c-.137-.035-.264-.062-.377-.098l-.296-.112-.415-.149-.14-.047Z"/><path fill="#fff" d="M110.091 30.56a1.743 1.743 0 1 1 .77-3.397c.366.098.69.313.923.612a1.733 1.733 0 0 1 .031 2.097 1.757 1.757 0 0 1-1.724.688Z"/><path fill="#263238" d="M109.705 30.44s.035.023.1.05c.099.045.204.076.311.094a1.73 1.73 0 0 0 1.162-.183 1.78 1.78 0 0 0 .924-1.447 1.75 1.75 0 0 0-.238-1.031 1.789 1.789 0 0 0-1.966-.836 1.793 1.793 0 0 0-1.338 2.2 1.718 1.718 0 0 0 .938 1.132c.066.03.104.044.104.037 0-.006-.138-.068-.345-.237a1.716 1.716 0 0 1-.6-.956 1.646 1.646 0 0 1 0-.777 1.67 1.67 0 0 1 .424-.78c.229-.242.526-.41.852-.481a1.703 1.703 0 0 1 1.034.096 1.676 1.676 0 0 1 .76 2.43c-.148.24-.354.44-.598.582a1.761 1.761 0 0 1-1.11.213c-.266-.052-.407-.117-.414-.107Z"/><path fill="#FFBF9D" d="M59.343 110.814s-2.945-2.751-4.079-3.49c-1.135-.739-3.672-1.739-4.62-1.832-.949-.093-5.387 1.189-5.387 1.189s-6.552-.577-7.652.186c-1.1.763-1.01 1.554-.548 2.135.462.581 2.231.395 4.19.426 1.958.031 2.48.213 2.48.213l-2.846 3.022 7.393 2.046 4.483-.169 1.62 2.035 4.966-5.761Z"/><path fill="#FFBF9D" d="m36.895 103.989.18 6.505.313.808 3.22 3.916 7.856-.52-6.259-2.43-2.224-1.685-.862-2.781s.262-4.291-2.224-3.813Z"/><path fill="#FFBF9D" d="M37.44 111.453h-1.924s-2.497-4.095-4.78-2.702l.525.808s-1.035-.464-1.683.399l6.296 5.5h.29l6.707-.43-5.431-3.575Z"/><path fill="#FF9A6C" d="M38.581 112.698a4.66 4.66 0 0 1-.541.02 3.64 3.64 0 0 0-1.328.265l-.062.031-.041-.059a15.396 15.396 0 0 0-.69-.873c-.507-.629-.969-1.196-1.355-1.671a5.383 5.383 0 0 1-.534-.711c.235.186.45.398.637.632.37.409.87.983 1.4 1.64.249.31.483.602.69.894l-.107-.028c.445-.176.923-.25 1.4-.216.18-.01.361.016.531.076ZM52.188 108.912c-.76.258-1.5.57-2.214.936a15.99 15.99 0 0 0-1.938 1.419c.127-.201.284-.382.466-.536.414-.4.878-.747 1.38-1.031a6.985 6.985 0 0 1 1.596-.66c.228-.081.468-.124.71-.128ZM45.912 107.228a9.366 9.366 0 0 1-.9 1.097 9.098 9.098 0 0 1-.93 1.076c.193-.439.461-.842.792-1.19a4.182 4.182 0 0 1 1.038-.983Z"/><path fill="#FF9A6C" d="M39.354 113.605a1.152 1.152 0 0 1-.149-.148l-.407-.45-1.024-1.172a4.664 4.664 0 0 1-.427-.53 2.742 2.742 0 0 1-.452-1.488c0-.554-.024-1.145-.034-1.767l-.07-4.061v-.079h.073l.21-.027a1.526 1.526 0 0 1 1.27.447c.291.325.504.713.62 1.134.202.764.282 1.556.235 2.345v-.028c.32 1.052.603 1.994.844 2.785l-.024-.031 1.617 1.262.431.344c.052.037.1.079.142.127 0 0-.059-.028-.162-.1l-.448-.32-1.652-1.217v-.02c-.248-.788-.545-1.719-.88-2.775v-.027a7.37 7.37 0 0 0-.244-2.286 2.612 2.612 0 0 0-.566-1.07 1.353 1.353 0 0 0-1.127-.391l-.19.024.072-.09c.021 1.441.038 2.812.052 4.06.014 1.248-.141 2.407.424 3.194.113.179.237.35.373.512l.382.461c.235.282.438.53.607.739l.38.471a.87.87 0 0 1 .124.172ZM36.178 115.462a.516.516 0 0 1-.345-.093 3.676 3.676 0 0 1-.738-.588 20.21 20.21 0 0 1-1.972-2.379 70.68 70.68 0 0 1-1.745-2.548c-.21-.343-.376-.605-.486-.797a1.14 1.14 0 0 1-.155-.306c.081.08.153.17.213.268l.535.763c.451.65 1.069 1.544 1.78 2.513a26.528 26.528 0 0 0 1.916 2.407c.207.229.438.436.69.615.098.057.2.106.307.145Z"/><path fill="#FFBF9D" d="m47.636 111.264-3.465-.234-1.035-2.829-.19-1.905a1.818 1.818 0 0 0-1.81-1.65h-.034l.193 4.665.714 2.898 2.817 1.657h3.448l-.638-2.602Z"/><path fill="#FFBF9D" d="m47.636 111.264-3.465-.234-1.035-2.829-.19-1.905a1.818 1.818 0 0 0-1.81-1.65h-.034l.193 4.665.714 2.898 2.817 1.657"/><path fill="#FF9A6C" d="M44.826 113.866a1.27 1.27 0 0 1-.203-.099l-.566-.313-2.069-1.19h-.024v-.024l-.727-2.894v-.018c-.063-1.402-.132-2.987-.204-4.665v-.089h.193a1.9 1.9 0 0 1 1.783 1.461c.04.187.067.376.08.567l.05.55c.039.344.07.715.104 1.056v-.021c.38 1.055.721 2.011 1.035 2.84l-.059-.045 2.535.199.69.066c.08.003.16.015.237.034-.08.008-.16.008-.241 0l-.69-.031-2.534-.141h-.08v-.038c-.306-.825-.658-1.777-1.034-2.826v-.02c-.034-.344-.072-.688-.11-1.056-.018-.182-.038-.364-.055-.55a3.908 3.908 0 0 0-.076-.543 1.716 1.716 0 0 0-1.618-1.323h-.141l.086-.093.186 4.665c.262 1.083.497 2.063.69 2.902l-.031-.042 2.048 1.238.552.344a.824.824 0 0 1 .193.099Z"/><path fill="#263238" d="M121.867 56.213c-2.969-11.287-5.71-24.41-22.265-23.24 0 0-10.2 1.956-15.042 9.46-2.851 4.415-5.32 23.447-5.81 38.478-.02.612.235 4.878.217 5.476l43.814 3.638h7.907s-.493-7.973-2.873-15.708c-2.327-7.519-4.896-14.123-5.948-18.104Z"/><path fill="#FFBF9D" d="m97.402 37.274 1.034-.987 11.19 4.497a3.134 3.134 0 0 1 2.064.935c.546.558.863 1.3.888 2.08l-.1 36.352c0 2.465-.48 4.6-1.973 6.563l-1.572 2.063c-3.583 4.716-10.955 4.328-13.793-.867a3.995 3.995 0 0 1-.393-.942 7.426 7.426 0 0 1-.17-.811c-.344-2.926-.344-5.463-.344-5.463-.2-3.21-.266-4.528-.266-4.497 0 .031-6.855-.787-8.707-9.557-.92-4.363-.748-10.365-.49-16.272.353-8.165 6.042-13.105 12.632-13.094Z"/><path fill="#263238" d="M100.281 56.21a1.134 1.134 0 0 0 1.155 1.086 1.093 1.093 0 0 0 .789-.304 1.077 1.077 0 0 0 .332-.776 1.139 1.139 0 0 0-1.152-1.09 1.096 1.096 0 0 0-.791.305 1.083 1.083 0 0 0-.333.779ZM88.598 56.512a1.13 1.13 0 0 0 1.152 1.09 1.096 1.096 0 0 0 1.035-.658c.058-.134.088-.277.09-.422a1.133 1.133 0 0 0-1.156-1.09 1.088 1.088 0 0 0-1.12 1.08ZM85.936 52.713c.149.141.976-.54 2.2-.595 1.224-.055 2.152.506 2.28.344.062-.069-.097-.344-.5-.595-.55-.338-1.19-.5-1.835-.464a2.978 2.978 0 0 0-1.741.66c-.362.313-.48.588-.404.65ZM98.074 52.287c.162.124.92-.636 2.131-.818 1.211-.183 2.193.285 2.3.117.055-.076-.127-.32-.558-.54a3.158 3.158 0 0 0-1.869-.275 3.014 3.014 0 0 0-1.67.835c-.323.337-.41.636-.334.68ZM94.081 61.72c0-.068-.765-.161-2.007-.257-.314-.018-.614-.062-.69-.272-.043-.32.013-.648.163-.935.255-.77.524-1.575.803-2.407 1.114-3.438 1.904-6.263 1.766-6.308-.138-.045-1.156 2.712-2.27 6.154-.268.849-.523 1.657-.765 2.43-.1.361-.283.774-.1 1.231a.776.776 0 0 0 .535.43 2.2 2.2 0 0 0 .534.048c1.259-.01 2.028-.041 2.031-.114Z"/><path fill="#FF9A6C" d="M93.96 76.204a22.613 22.613 0 0 0 11.724-3.754s-2.675 6.27-11.593 5.89l-.13-2.136ZM97.905 64.203a2.012 2.012 0 0 0-1.427-.688c-.77-.045-1.31.052-1.724.657a1.246 1.246 0 0 0-.087.983c.09.14.024.144.162.244.5.35 1.066.596 1.662.725.594.135 1.276 0 1.583-.484a1.272 1.272 0 0 0-.169-1.437Z"/><path fill="#263238" d="M97.781 46.693c.159.31 1.21 0 2.507-.034 1.296-.034 2.376.206 2.5-.113.055-.152-.172-.434-.635-.688a3.904 3.904 0 0 0-1.934-.437 3.767 3.767 0 0 0-1.88.547c-.434.282-.627.574-.558.725ZM86.112 50.506c.228.265 1.059-.065 2.07-.127 1.01-.062 1.878.09 2.068-.21.08-.144-.069-.416-.459-.66a2.897 2.897 0 0 0-1.706-.368 2.856 2.856 0 0 0-1.625.64c-.348.302-.451.594-.348.725Z"/><path fill="#263238" d="M112.353 59.314s-4.71 1.134-11.379-13.219c-2.276-4.885-6.693-9.808-6.693-9.808l4.138-.595s12.362 3.472 12.569 3.627c.207.155 3.121 6.374 3.121 6.374l-1.756 13.62Z"/><path fill="#FFBF9D" d="M110.809 58.74c-.031-.66.655-2.252 1.3-2.386 1.724-.344 4.875-.375 5.127 4.036.345 6.027-5.796 5.126-5.817 4.954-.021-.172-.5-4.332-.61-6.604Z"/><path fill="#FF9A6C" d="M113.136 62.944c.024-.02.107.07.29.141.257.092.54.081.789-.03.625-.269 1.104-1.31 1.073-2.407a3.539 3.539 0 0 0-.379-1.489 1.22 1.22 0 0 0-.838-.76.539.539 0 0 0-.607.324c-.073.172-.024.292-.059.302-.034.01-.134-.093-.1-.344a.67.67 0 0 1 .217-.392.792.792 0 0 1 .573-.185 1.479 1.479 0 0 1 1.155.87c.285.508.443 1.078.459 1.66.031 1.217-.528 2.39-1.38 2.688a1.136 1.136 0 0 1-.972-.103c-.204-.117-.255-.25-.221-.275Z"/><path fill="#263238" d="M98.684 64.447c-.017.154-1.051.13-2.275.368-1.225.237-2.183.618-2.259.484-.076-.134.831-.766 2.159-1.01 1.327-.245 2.403.03 2.376.158Z"/><path fill="#FFBF9D" d="M145.926 111.15s5.062-4.321 6.531-4.438c1.469-.117 5.324.602 5.324.602s2.438.02 3.648-.131a9.278 9.278 0 0 1 3.793.186c.366.11.824 1.014-.252 1.633-.455.261-4.882.56-4.882.56l11.076 3.153-1.438 1.182a1.126 1.126 0 0 1-.69.258l-15.934.564-.732 1.777-6.444-5.346Z"/><path fill="#FFBF9D" d="M158.015 111.154h5.173s1.813-2.407 2.469-3.4c.575-.877 1.265-1.135 1.869-.928a.69.69 0 0 1 .456.66.72.72 0 0 1-.087.343l-2.276 4.233 1.193-.399s2.386-2.331 2.852-2.871c.465-.54 2.162-2.809 3.665-1.155l-2.069 2.31 2.069-1.464s1.662-1.424 2.548.271l-6.207 5.212"/><path fill="#FF9A6C" d="M152.629 109.012a.94.94 0 0 1 .207-.072c.201-.067.407-.115.617-.141a4.988 4.988 0 0 1 2.321.241c.519.179 1.02.409 1.493.687.255.151.514.316.776.499l.393.278c.124.09.279.206.379.261 1.311.1 2.811.19 4.38.3l-.076.03c.486-.574.962-1.199 1.424-1.849.183-.255.345-.512.521-.767.175-.254.324-.519.51-.76.177-.249.381-.48.607-.687.115-.1.241-.186.376-.258a.823.823 0 0 1 .475-.107h-.031a1.091 1.091 0 0 1 .818.196.897.897 0 0 1 .272.771v.017c-.986 1.76-1.845 3.293-2.507 4.469a1.566 1.566 0 0 1-.914.963 2.724 2.724 0 0 1-.972.206 5.772 5.772 0 0 1-.617 0 .854.854 0 0 1-.214-.021h.214c.138 0 .345 0 .614-.024.324-.019.643-.095.941-.223a1.486 1.486 0 0 0 .838-.911l2.455-4.514v.031a.74.74 0 0 0-.217-.623.936.936 0 0 0-.69-.151h-.027a.644.644 0 0 0-.345.093 1.521 1.521 0 0 0-.345.237c-.218.193-.414.41-.583.646-.345.482-.655 1.032-1.034 1.527a27.165 27.165 0 0 1-1.438 1.86l-.028.034h-.045c-1.579-.117-3.048-.206-4.4-.326a2.58 2.58 0 0 1-.434-.289l-.39-.279c-.255-.182-.51-.343-.758-.498a8.159 8.159 0 0 0-1.462-.688 5.098 5.098 0 0 0-2.276-.289 4.246 4.246 0 0 0-.614.11 1.535 1.535 0 0 1-.214.021ZM173.339 107.637c-.052.103-.12.198-.2.282-.141.175-.344.426-.603.729-.51.612-1.228 1.447-2.031 2.362-.804.914-1.493 1.78-2.09 2.324-.229.22-.478.418-.745.591a.823.823 0 0 1-.317.144c.089-.074.182-.141.279-.203.245-.192.475-.401.69-.625.562-.557 1.217-1.441 2.038-2.345.821-.904 1.538-1.739 2.069-2.331l.641-.687c.079-.092.17-.173.269-.241Z"/><path fill="#FF9A6C" d="M170.501 107.878a4.58 4.58 0 0 1-.627.735c-.404.44-.973 1.032-1.607 1.692-.521.536-1.007 1.031-1.379 1.406a5.506 5.506 0 0 1-1.28.344c.111-.056.226-.1.345-.134l.904-.344-.028.017a61 61 0 0 1 1.379-1.43 91.381 91.381 0 0 1 1.645-1.654c.198-.228.415-.44.648-.632Z"/><path fill="#00A896" d="M128.764 85.497s7.434 1.911 8.162 11.984c.417 5.742-2.649 24.179-2.649 24.179l10.98-11.242 9.786 6.787s-13.321 16.216-16.383 18.667c-3.062 2.452-7.972 6.364-9.558 6.044-1.587-.32-1.593-7.635-1.593-7.635V93.885l1.255-8.388ZM75.316 86.731s-6.614 2.17-6.352 15.062c.262 12.892.059 17.22.059 17.22l-9.914-10.462-8.228 9.056s9.214 13.648 15.659 20.283c6.076 6.247 11.476.822 13.23-3.572 1.422-3.558 2.566-17.089 2.566-17.089l-7.02-30.498Z"/><path fill="#000" d="M129.34 108.703c.6-3.782.758-7.877-.969-11.345-4.238 10.444-4.049 22.439-2.531 33.505l3.358 9.575c2.117-6.415.107-13.25.152-19.94.027-3.813-.607-8.024-.01-11.795Z"/><path fill="#00A896" d="M73.94 94.934s4.42 29.648 5.276 32.244c.855 2.596.855 10.248.855 10.248s-4.638 8.616-4.924 14.601l55.886.117-3.631-24.605a41.094 41.094 0 0 1-.083-4.669c.234-4.335.569-13.628 1.817-19.341 1.448-6.642-.503-18.008-.503-18.008L111.94 81.42c-3.952 5.662-13.793 5.737-17.697 0L75.402 86.73l-1.462 8.203Z"/><path fill="#263238" d="M128.498 126.363a.976.976 0 0 1 .166-.265c.117-.161.293-.395.513-.687a15.225 15.225 0 0 1 1.918-2.063 10.18 10.18 0 0 1 2.365-1.516c.345-.144.6-.254.79-.316.097-.042.199-.071.303-.086.038.072-1.693.625-3.341 2.063a20.383 20.383 0 0 0-1.938 1.994c-.237.31-.497.603-.776.876ZM76.747 125.734c-.035 0-.162-.602-.587-1.506a8.947 8.947 0 0 0-5.758-4.871c-.966-.268-1.593-.296-1.586-.344.145-.018.292-.018.438 0 .397.034.792.101 1.179.199a8.625 8.625 0 0 1 3.507 1.785 8.705 8.705 0 0 1 2.338 3.156c.159.365.29.742.39 1.127.046.147.072.3.079.454ZM77.105 109.669a.884.884 0 0 1-.255-.138 8.968 8.968 0 0 1-.641-.447 15.556 15.556 0 0 1-1.92-1.719 22.26 22.26 0 0 1-1.653-1.97 5.417 5.417 0 0 1-.6-.883c.25.251.48.52.69.804.42.506 1 1.2 1.686 1.926a21.21 21.21 0 0 0 1.87 1.743c.286.212.562.441.823.684ZM116.115 125.717s0 .024-.044.069l-.145.189c-.138.161-.321.416-.59.711a23.614 23.614 0 0 1-2.414 2.383 32.417 32.417 0 0 1-4.086 2.977 56.35 56.35 0 0 1-5.431 2.933c-1.979.938-3.89 1.773-5.62 2.55-1.731.777-3.28 1.489-4.56 2.132-1.278.643-2.3 1.193-2.996 1.592-.344.192-.613.343-.796.46l-.21.117c-.049.024-.073.038-.076.035a.256.256 0 0 1 .065-.049l.2-.134c.18-.113.438-.285.783-.491.69-.416 1.696-.99 2.972-1.644 1.276-.653 2.824-1.375 4.552-2.169 1.728-.794 3.634-1.623 5.607-2.561a59.236 59.236 0 0 0 5.424-2.912 33.52 33.52 0 0 0 4.083-2.919 25.495 25.495 0 0 0 2.451-2.334c.276-.285.469-.533.611-.688l.162-.175.058-.072Z"/><path fill="#263238" d="M75.274 151.563v-.289c0-.199.031-.478.052-.839.133-1.045.344-2.08.631-3.094a51.256 51.256 0 0 1 4.303-10.228v.045c-.224-3.225-.558-6.828-.944-10.616-.738-7.158-1.51-13.621-2.07-18.303a530.431 530.431 0 0 0-.689-5.539c-.076-.646-.135-1.155-.18-1.509l-.04-.392a.667.667 0 0 1 0-.134.587.587 0 0 1 .027.131c.014.096.034.226.062.391l.21 1.503c.176 1.317.425 3.204.735 5.535a823.014 823.014 0 0 1 2.127 18.296c.387 3.782.718 7.399.928 10.627v.045a52.771 52.771 0 0 0-4.348 10.176 22.628 22.628 0 0 0-.69 3.077l-.076.832c0 .089 0 .161-.024.216a.242.242 0 0 1-.014.069ZM129.822 95.625a.73.73 0 0 1 0 .148v.433c0 .378 0 .938-.031 1.657-.038 1.44-.186 3.52-.445 6.085-.258 2.565-.624 5.607-1.003 8.99-.379 3.383-.752 7.106-.869 11.032a60.584 60.584 0 0 0 .762 11.019c.497 3.369 1.083 6.377 1.535 8.914.451 2.537.803 4.59.996 6.017.104.715.162 1.272.204 1.646 0 .183.031.344.041.43a.732.732 0 0 1 0 .148.705.705 0 0 1-.028-.144c0-.107-.034-.248-.062-.427-.051-.378-.12-.931-.238-1.643-.21-1.423-.569-3.476-1.034-6.006-.466-2.53-1.069-5.539-1.576-8.911a60.126 60.126 0 0 1-.779-11.049c.12-3.933.503-7.66.886-11.043.383-3.383.776-6.425 1.034-8.987.259-2.561.438-4.634.5-6.074.045-.719.049-1.276.062-1.654v-.433c.011-.05.026-.1.045-.148Z"/><path fill="#000" d="M76.498 101.978a66.417 66.417 0 0 0 3.238 28.115l-3.238-28.115ZM111.067 134.827c-4.234 3.878-8.483 7.192-13.693 9.038 3.928.344 7.89-1.165 10.924-3.671 3.035-2.506 5.197-5.157 6.586-8.822l-3.817 3.455Z"/><path fill="#263238" d="M106.243 139.097c-.034-.034 2.6-2.444 5.883-5.38s5.972-5.284 6.003-5.246c.031.037-2.6 2.444-5.882 5.38-3.283 2.936-5.969 5.284-6.004 5.246Z"/><path fill="#455A64" d="M115.609 66.341c0 .427-.127.843-.365 1.198a2.164 2.164 0 0 1-3.918-.78 2.151 2.151 0 0 1 .922-2.212 2.166 2.166 0 0 1 3.197.97c.109.26.164.541.164.824Z"/><path fill="#263238" d="m128.474 94.649-1.91-15.815-13.673-4.125c-.265 9.406-1.917 19.967-4.289 29.074a38.077 38.077 0 0 0 15.689 1.63l.69-7.632c.34 1.918.685 3.835 1.034 5.751 1.435-.801 2.28-2.406 2.566-4.012.286-1.605.09-3.228-.107-4.871Z"/><path fill="#455A64" d="M117.774 105.485s0-.065.041-.196c.042-.131.076-.344.135-.581.121-.516.296-1.265.524-2.224.448-1.936 1.11-4.731 1.755-8.22a88.482 88.482 0 0 0 1.49-12.377 53.46 53.46 0 0 0-1.379-15.127 37.882 37.882 0 0 0-6.342-13.751c-.345-.464-.689-.935-1.076-1.375-.386-.44-.727-.87-1.117-1.266l-.569-.601-.579-.574c-.379-.385-.773-.74-1.152-1.097-1.534-1.416-3.034-2.66-4.376-3.83-1.341-1.169-2.538-2.245-3.531-3.252-.251-.25-.479-.505-.689-.74-.211-.233-.442-.47-.635-.687-.193-.216-.39-.447-.569-.656l-.486-.62c-.317-.384-.555-.755-.78-1.068-.223-.313-.389-.588-.523-.815l-.304-.509c-.069-.117-.1-.179-.1-.179s.041.055.117.169l.318.502c.138.22.31.495.537.8.228.307.47.688.79 1.06l.49.611.572.65c.197.23.411.461.642.688.231.227.455.488.71.732.993 1 2.196 2.063 3.541 3.228 1.345 1.166 2.849 2.407 4.393 3.816.38.344.78.715 1.159 1.097l.583.574.572.605c.393.396.748.84 1.124 1.269.376.43.728.897 1.09 1.375a37.935 37.935 0 0 1 6.362 13.81 53.334 53.334 0 0 1 1.379 15.182 86.88 86.88 0 0 1-1.531 12.376c-.662 3.493-1.341 6.285-1.81 8.217-.238.962-.428 1.719-.559 2.217-.065.248-.117.437-.151.574-.035.138-.066.193-.066.193Z"/><path fill="#1ED760" fill-opacity=".5" d="M66.55 28.566c-4.19 0-7.586 3.386-7.586 7.563s3.396 7.563 7.586 7.563 7.586-3.386 7.586-7.563-3.396-7.563-7.586-7.563Zm3.479 10.908a.473.473 0 0 1-.65.156c-1.782-1.084-4.024-1.33-6.665-.729a.47.47 0 1 1-.21-.92c2.89-.657 5.369-.374 7.368.845a.47.47 0 0 1 .157.648Zm.928-2.06a.592.592 0 0 1-.813.195c-2.04-1.25-5.148-1.612-7.56-.882a.59.59 0 1 1-.344-1.128c2.756-.834 6.181-.43 8.523 1.005.278.17.366.534.194.81Zm.08-2.144c-2.445-1.448-6.479-1.581-8.813-.875a.707.707 0 1 1-.412-1.354c2.68-.81 7.134-.654 9.95 1.012.337.2.448.634.248.97a.71.71 0 0 1-.973.247Z"/><path fill="#F90" fill-opacity=".5" d="M123.561 20.372c-5.574 2.64-9.033.431-11.247-.91-.137-.084-.37.02-.168.25.738.89 3.155 3.035 6.311 3.035 3.157 0 5.036-1.714 5.271-2.013.233-.296.069-.46-.167-.362Zm1.565-.86c-.15-.194-.91-.23-1.389-.171-.479.056-1.198.348-1.136.523.032.065.098.036.427.006.33-.032 1.255-.148 1.448.102.193.253-.295 1.455-.384 1.649-.087.194.032.244.194.115.16-.13.449-.464.643-.937.193-.476.311-1.14.197-1.287Z"/><path fill="#000" fill-opacity=".25" fill-rule="evenodd" d="M119.813 14.988c0 .692.018 1.27-.334 1.884-.284.5-.734.808-1.236.808-.686 0-1.086-.52-1.086-1.288 0-1.514 1.365-1.79 2.656-1.79v.386Zm1.802 4.332a.376.376 0 0 1-.423.042c-.592-.49-.698-.717-1.025-1.185-.98.995-1.673 1.293-2.944 1.293-1.503 0-2.674-.923-2.674-2.77 0-1.442.787-2.425 1.905-2.905.97-.425 2.324-.5 3.359-.617v-.23c0-.423.033-.923-.216-1.287-.219-.328-.636-.463-1.003-.463-.68 0-1.289.348-1.437 1.067-.03.16-.148.318-.309.325l-1.733-.184c-.146-.033-.307-.15-.267-.373.4-2.09 2.297-2.72 3.995-2.72.87 0 2.005.23 2.691.885.87.808.787 1.885.787 3.057v2.77c0 .832.346 1.197.673 1.647.116.16.141.353-.005.473-.364.302-1.013.865-1.369 1.18l-.005-.005Z" clip-rule="evenodd"/><path fill="#F90" fill-opacity=".5" d="M123.561 20.372c-5.574 2.64-9.033.431-11.247-.91-.137-.084-.37.02-.168.25.738.89 3.155 3.035 6.311 3.035 3.157 0 5.036-1.714 5.271-2.013.233-.296.069-.46-.167-.362Zm1.565-.86c-.15-.194-.91-.23-1.389-.171-.479.056-1.198.348-1.136.523.032.065.098.036.427.006.33-.032 1.255-.148 1.448.102.193.253-.295 1.455-.384 1.649-.087.194.032.244.194.115.16-.13.449-.464.643-.937.193-.476.311-1.14.197-1.287Z"/><path fill="#000" fill-opacity=".25" fill-rule="evenodd" d="M119.813 14.988c0 .692.018 1.27-.334 1.884-.284.5-.734.808-1.236.808-.686 0-1.086-.52-1.086-1.288 0-1.514 1.365-1.79 2.656-1.79v.386Zm1.802 4.332a.376.376 0 0 1-.423.042c-.592-.49-.698-.717-1.025-1.185-.98.995-1.673 1.293-2.944 1.293-1.503 0-2.674-.923-2.674-2.77 0-1.442.787-2.425 1.905-2.905.97-.425 2.324-.5 3.359-.617v-.23c0-.423.033-.923-.216-1.287-.219-.328-.636-.463-1.003-.463-.68 0-1.289.348-1.437 1.067-.03.16-.148.318-.309.325l-1.733-.184c-.146-.033-.307-.15-.267-.373.4-2.09 2.297-2.72 3.995-2.72.87 0 2.005.23 2.691.885.87.808.787 1.885.787 3.057v2.77c0 .832.346 1.197.673 1.647.116.16.141.353-.005.473-.364.302-1.013.865-1.369 1.18l-.005-.005Z" clip-rule="evenodd"/><path fill="#4285F4" fill-opacity=".5" d="M148.274 43.762c0-.642-.052-1.11-.163-1.595h-7.269v2.896h4.267c-.086.72-.551 1.803-1.583 2.531l-.014.097 2.298 1.795.159.016c1.462-1.361 2.305-3.364 2.305-5.74Z"/><path fill="#34A853" fill-opacity=".5" d="M140.843 51.392c2.09 0 3.844-.693 5.126-1.89l-2.443-1.908c-.654.46-1.53.78-2.683.78-2.047 0-3.784-1.36-4.404-3.242l-.09.008-2.39 1.864-.031.088c1.273 2.549 3.888 4.3 6.915 4.3Z"/><path fill="#FBBC05" fill-opacity=".5" d="M136.439 45.132a4.848 4.848 0 0 1-.258-1.543c0-.538.094-1.058.249-1.543l-.004-.104-2.42-1.894-.079.038a7.871 7.871 0 0 0-.825 3.503c0 1.257.301 2.445.826 3.503l2.511-1.96Z"/><path fill="#EB4335" fill-opacity=".5" d="M140.843 38.803c1.454 0 2.434.633 2.993 1.161l2.185-2.15c-1.342-1.257-3.088-2.029-5.178-2.029-3.027 0-5.643 1.752-6.916 4.301l2.503 1.96c.628-1.882 2.366-3.243 4.413-3.243Z"/><path fill="#000" fill-opacity=".5" d="M169.182 90.303c-.967.555-1.565 1.505-1.565 2.56 0 1.188.768 2.27 1.935 2.718a6.854 6.854 0 0 1-.996 1.9c-.626.818-1.28 1.662-2.248 1.662-.967 0-1.252-.528-2.39-.528-1.11 0-1.509.555-2.419.555-.911 0-1.537-.766-2.248-1.716-.939-1.319-1.48-2.85-1.508-4.459 0-2.612 1.821-4.01 3.642-4.01.968 0 1.764.58 2.362.58.569 0 1.48-.607 2.561-.607 1.138-.027 2.22.475 2.874 1.346Zm-3.386-2.454c.484-.527.74-1.187.768-1.873 0-.08 0-.185-.028-.264a3.361 3.361 0 0 0-2.135 1.03 2.773 2.773 0 0 0-.796 1.82c0 .08 0 .158.028.237.057 0 .142.027.199.027a2.892 2.892 0 0 0 1.964-.977Z"/><path fill="#FF3008" fill-opacity=".5" d="M54.292 76.135c-.622-1.143-1.867-1.846-3.2-1.846H40.998a.334.334 0 0 0-.31.22c-.045.132-.045.264.088.352l2.178 2.152c.178.176.445.307.712.307h7.113c.49 0 .934.396.934.88 0 .482-.4.878-.89.922h-4.89a.334.334 0 0 0-.311.22c-.044.131-.044.263.089.35l2.178 2.153c.178.176.445.308.712.308h2.223c2.89 0 5.068-3.031 3.467-6.019Z"/><path fill="#263238" d="M128.391 43.551v-.203c0-.134 0-.343.024-.587l.018-.437c0-.158.045-.344.072-.52.028-.175.055-.391.09-.608.037-.232.089-.461.155-.687a11.745 11.745 0 0 1 1.362-3.318 12.389 12.389 0 0 1 3.155-3.544l.538-.402c.19-.124.39-.238.586-.344.197-.107.393-.255.611-.344l.644-.31.345-.158.345-.127.69-.258c.238-.079.489-.13.734-.2.249-.07.501-.128.755-.171.522-.097 1.05-.159 1.58-.186.272 0 .541-.037.817-.034l.828.041c.137 0 .275 0 .417.028l.417.062c.276.044.559.079.841.134.565.127 1.121.289 1.666.485.56.2 1.105.438 1.631.715.265.14.521.305.779.46.131.083.266.152.39.244l.365.275c.501.368.975.769 1.421 1.2l.638.688.159.175.144.19.573.762.255.413.252.413.124.206.107.216c.141.293.283.588.427.88.145.293.225.616.345.925a12.27 12.27 0 0 1 0 7.87c-.114.309-.224.618-.345.924l-.424.88-.107.217-.127.206-.252.416-.252.41-.289.381-.287.385-.144.19-.159.175-.638.687c-.446.43-.92.83-1.417 1.2l-.369.275c-.124.09-.259.161-.386.24-.262.155-.518.324-.78.465a13.33 13.33 0 0 1-1.634.711c-.545.2-1.102.361-1.669.485-.279.059-.562.09-.841.134l-.414.066c-.142.017-.28.017-.421.023l-.824.042c-.276 0-.548-.024-.817-.031a11.91 11.91 0 0 1-1.58-.19 6.181 6.181 0 0 1-.755-.171c-.248-.069-.496-.12-.734-.2l-.69-.257-.345-.124-.345-.158-.648-.313c-.214-.1-.407-.237-.607-.344a6.935 6.935 0 0 1-.586-.36l-.538-.403a12.346 12.346 0 0 1-3.158-3.545 11.743 11.743 0 0 1-1.359-3.317 5.576 5.576 0 0 1-.155-.688c-.035-.216-.062-.42-.09-.605-.027-.186-.059-.344-.072-.522-.014-.18 0-.303-.018-.434 0-.257-.017-.453-.024-.59-.007-.138 0-.2 0-.2s0 .069.018.2c.017.13.024.343.037.587 0 .13.018.275.028.433.01.158.048.344.076.52l.096.601c.035.213.107.44.163.688.291 1.159.756 2.268 1.379 3.29a12.336 12.336 0 0 0 3.152 3.503l.534.395c.186.124.386.237.583.344.195.125.396.24.603.344l.642.306.344.154.345.128.69.25c.238.08.486.131.731.197.246.07.496.127.748.168a11.6 11.6 0 0 0 1.562.182c.269 0 .538.035.807.031l.821-.044c.134 0 .276 0 .41-.025l.414-.065c.276-.045.555-.076.831-.134a13.09 13.09 0 0 0 1.652-.481c.552-.2 1.09-.436 1.61-.709.262-.14.514-.306.772-.457.125-.082.263-.151.38-.24l.365-.272c.493-.366.962-.763 1.404-1.19l.627-.687.159-.172.424-.567.286-.378.249-.406.248-.41.124-.202.107-.217c.138-.288.279-.577.417-.87.138-.292.224-.608.345-.91.405-1.259.618-2.57.634-3.892a13.073 13.073 0 0 0-.638-3.888l-.344-.911c-.142-.293-.28-.581-.421-.87l-.103-.217-.125-.203-.251-.409-.249-.405-.565-.757-.141-.185-.159-.176-.628-.687c-.441-.425-.91-.822-1.403-1.186l-.366-.272c-.12-.093-.255-.162-.379-.24-.259-.155-.51-.317-.772-.461a13.502 13.502 0 0 0-3.262-1.186c-.276-.059-.556-.09-.831-.138l-.411-.062c-.138-.017-.276-.017-.414-.027l-.82-.041c-.269 0-.538.02-.804.03-.525.024-1.048.085-1.565.183a5.513 5.513 0 0 0-.749.168c-.244.065-.493.117-.731.193l-.689.254-.345.124-.345.154-.641.306c-.214.1-.404.238-.604.344-.2.107-.393.23-.582.344l-.535.399a12.374 12.374 0 0 0-3.152 3.503 11.912 11.912 0 0 0-1.379 3.287c-.055.24-.134.46-.162.687-.028.227-.066.416-.097.605-.031.19-.058.344-.075.516-.018.172-.021.306-.028.433l-.038.588c-.003.138-.014.206-.014.206ZM3.467 31.38l-.105-.173a5.782 5.782 0 0 1-.283-.517l-.21-.383c-.082-.135-.14-.317-.206-.482-.067-.164-.156-.364-.238-.567a5.752 5.752 0 0 1-.222-.67 11.744 11.744 0 0 1-.546-3.543 12.346 12.346 0 0 1 .873-4.658l.254-.621c.098-.204.211-.404.325-.596.113-.192.205-.42.345-.608l.393-.597.214-.312.23-.286.458-.575c.163-.19.352-.364.526-.549a7.02 7.02 0 0 1 .559-.535 11.9 11.9 0 0 1 1.258-.97c.233-.14.444-.31.683-.449l.73-.39a2.15 2.15 0 0 1 .372-.19l.39-.162c.26-.103.52-.219.79-.317.55-.18 1.11-.328 1.678-.44a12.646 12.646 0 0 1 1.768-.224c.3-.016.604-.005.906-.006.154.004.305-.006.46.01l.455.048c.619.058 1.232.157 1.838.298l.902.262.226.07.222.087.885.36.432.223.428.224.213.113.204.13c.272.179.546.36.821.536.275.176.51.412.773.615a12.292 12.292 0 0 1 4.065 6.746c.062.323.128.645.182.97l.091.972.02.24-.002.242-.001.486-.005.48-.05.476-.047.477-.027.236-.045.232-.192.917c-.16.598-.36 1.184-.595 1.756l-.174.426c-.06.14-.138.271-.207.404-.145.267-.276.543-.428.798-.312.506-.657.99-1.034 1.45-.363.45-.758.875-1.18 1.272-.209.194-.435.366-.652.547l-.32.269c-.113.087-.231.158-.349.236l-.685.46c-.236.14-.482.26-.716.392a11.86 11.86 0 0 1-1.452.65c-.24.095-.486.175-.736.24-.248.068-.488.152-.732.206l-.725.133-.36.071-.377.042-.717.064c-.235.025-.471.006-.698.017-.226.012-.46.004-.689-.008l-.668-.069a12.406 12.406 0 0 1-4.539-1.416 11.81 11.81 0 0 1-2.878-2.146 5.619 5.619 0 0 1-.488-.51c-.142-.167-.27-.327-.39-.472-.119-.145-.227-.265-.331-.41-.105-.147-.157-.26-.239-.363-.133-.221-.25-.38-.326-.494-.077-.115-.103-.171-.103-.171s.035.058.118.162c.082.103.198.282.336.484.067.112.157.227.247.357.09.13.22.27.333.406l.394.466c.14.165.319.323.494.506.849.844 1.82 1.556 2.882 2.112 1.4.746 2.932 1.216 4.51 1.384l.663.065c.224.01.454.005.677-.005.232.007.464.002.695-.015l.708-.067.375-.044.362-.069.72-.139c.245-.054.485-.137.728-.207.248-.066.49-.146.729-.24.491-.183.97-.398 1.433-.646.23-.138.479-.247.707-.388l.68-.46c.116-.069.237-.141.34-.23l.321-.27c.213-.18.437-.35.643-.541.416-.394.806-.815 1.167-1.26.371-.455.71-.934 1.015-1.435.152-.255.282-.526.426-.788.063-.135.146-.265.2-.401l.174-.421c.233-.567.43-1.148.588-1.74l.183-.912.047-.229.07-.704.05-.471.004-.475.001-.478.002-.238-.02-.24c-.031-.319-.06-.64-.092-.96-.033-.322-.122-.637-.175-.958a13.248 13.248 0 0 0-1.466-3.662 13.144 13.144 0 0 0-2.555-3.005l-.767-.604c-.272-.178-.54-.355-.81-.53l-.2-.132-.211-.11-.427-.222-.423-.22-.875-.358-.217-.086-.227-.07-.893-.266a14.25 14.25 0 0 0-1.815-.296l-.454-.045c-.151-.018-.302-.008-.45-.012-.301 0-.6-.009-.9.002-1.16.072-2.305.293-3.408.659-.267.091-.522.208-.784.308l-.383.158c-.127.056-.246.127-.37.189l-.724.386c-.23.138-.45.294-.673.44-.438.29-.855.61-1.247.96-.197.162-.383.34-.555.528-.176.182-.362.354-.527.54l-.46.573-.231.283-.216.31-.392.591c-.132.195-.223.41-.34.605-.116.194-.217.4-.321.594l-.253.616a12.325 12.325 0 0 0-.892 4.622 11.91 11.91 0 0 0 .516 3.525c.077.235.122.464.216.673.094.208.159.39.23.568.07.178.127.325.201.48.074.157.14.274.2.386l.271.524c.068.12.095.184.095.184ZM156.902 68.712v-.203c0-.134 0-.344.024-.588l.017-.436c0-.158.045-.344.073-.52.027-.175.055-.391.089-.608.038-.232.09-.462.156-.687a11.745 11.745 0 0 1 1.362-3.318 12.389 12.389 0 0 1 3.155-3.544l.538-.403c.189-.123.389-.237.586-.343.197-.107.393-.255.61-.344l.645-.31.345-.158.345-.127.689-.258c.238-.079.49-.13.735-.2.248-.07.5-.128.755-.171a11.938 11.938 0 0 1 1.579-.186c.273 0 .542-.038.818-.034l.827.041c.138 0 .276 0 .418.028l.417.061c.276.045.558.08.841.134.565.128 1.121.29 1.666.485.56.2 1.105.439 1.631.715.265.141.52.306.779.461.131.083.265.151.39.244l.365.275c.5.368.975.768 1.421 1.2l.638.688.158.175.145.189.573.763.255.413.251.412.125.206.107.217c.141.292.282.588.427.88.145.292.224.616.345.925a12.27 12.27 0 0 1 0 7.87c-.114.309-.224.618-.345.924l-.424.88-.107.217-.128.206-.251.416-.252.41-.29.38-.286.386-.145.189-.158.175-.638.688c-.446.43-.92.83-1.417 1.2l-.369.275c-.125.09-.259.161-.387.24-.262.155-.517.323-.779.465-.528.273-1.074.51-1.634.711-.545.2-1.103.361-1.669.485-.28.058-.562.09-.842.134l-.413.065c-.142.017-.28.017-.421.024l-.824.042c-.276 0-.549-.025-.818-.031-.53-.028-1.057-.091-1.579-.19a6.2 6.2 0 0 1-.755-.171c-.248-.07-.497-.12-.735-.2l-.689-.258-.345-.123-.345-.158-.648-.313c-.214-.1-.407-.237-.607-.344a6.779 6.779 0 0 1-.586-.361l-.538-.402a12.364 12.364 0 0 1-3.159-3.545 11.74 11.74 0 0 1-1.358-3.317 5.769 5.769 0 0 1-.156-.688c-.034-.216-.062-.42-.089-.605-.028-.186-.059-.344-.073-.523-.013-.178 0-.302-.017-.433 0-.258-.017-.454-.024-.591-.007-.138 0-.2 0-.2s0 .07.017.2c.018.13.024.344.038.588 0 .13.017.275.028.433.01.158.048.344.076.52l.096.6c.035.214.107.44.162.688.292 1.16.757 2.269 1.38 3.29a12.348 12.348 0 0 0 3.151 3.504l.535.395c.186.124.386.237.583.344.195.124.396.24.603.344l.641.306.345.154.345.127.69.251c.238.08.486.131.731.196.246.071.495.127.748.169a11.6 11.6 0 0 0 1.562.182c.269 0 .538.034.807.031l.821-.045c.134 0 .275 0 .41-.024l.414-.065c.276-.045.555-.076.831-.134.56-.124 1.112-.285 1.652-.482.552-.198 1.09-.435 1.61-.708.262-.14.514-.306.772-.457.124-.082.262-.151.38-.24l.365-.272a14.32 14.32 0 0 0 1.404-1.19l.627-.687.159-.172.424-.567.286-.379.248-.405.249-.41.124-.202.107-.217c.138-.289.279-.577.417-.87.138-.292.224-.608.345-.91.404-1.26.618-2.57.634-3.892a13.073 13.073 0 0 0-.638-3.889l-.345-.91c-.141-.293-.279-.582-.42-.87l-.104-.217-.124-.203-.252-.409-.248-.406-.565-.756-.142-.186-.158-.175-.628-.688a14.26 14.26 0 0 0-1.403-1.186l-.366-.271c-.121-.093-.255-.162-.379-.24-.259-.155-.511-.317-.773-.461a13.487 13.487 0 0 0-3.262-1.187c-.276-.058-.555-.089-.831-.137l-.41-.062c-.138-.017-.276-.017-.414-.028l-.821-.04c-.268 0-.537.02-.803.03-.525.024-1.049.084-1.565.182a5.446 5.446 0 0 0-.749.169c-.245.065-.493.117-.731.192l-.689.255-.345.124-.345.154-.641.306c-.214.1-.404.237-.604.344-.2.107-.393.23-.583.344l-.534.399a12.374 12.374 0 0 0-3.152 3.503 11.912 11.912 0 0 0-1.379 3.286c-.055.241-.135.461-.162.688-.028.227-.066.416-.097.605-.031.19-.058.344-.076.516-.017.172-.02.306-.027.433l-.038.588a2.015 2.015 0 0 1-.014.206ZM180.521 92.263v-.203c0-.134 0-.344.024-.588l.018-.436c0-.159.044-.344.072-.52.028-.175.055-.392.09-.608.037-.232.089-.462.155-.688a11.744 11.744 0 0 1 1.362-3.317 12.388 12.388 0 0 1 3.155-3.545l.538-.402c.19-.124.39-.237.586-.344.197-.106.393-.254.611-.343l.644-.31.345-.158.345-.127.69-.258c.238-.08.489-.13.734-.2.249-.07.501-.128.755-.171.522-.097 1.05-.16 1.58-.186.272 0 .541-.038.817-.034l.827.04c.138 0 .276 0 .418.028l.417.062c.276.045.559.08.841.134.565.127 1.121.29 1.666.485.56.2 1.105.439 1.631.715.265.141.521.306.779.46.131.083.266.152.39.245l.365.275c.501.367.975.768 1.421 1.2l.638.687.159.176.144.189.573.763.255.412.252.413.124.206.107.217c.141.292.282.588.427.88.145.292.224.615.345.925a12.27 12.27 0 0 1 0 7.87c-.114.309-.224.618-.345.924l-.424.88-.107.217-.127.206-.252.416-.252.409-.289.382-.287.385-.144.189-.159.175-.638.688a14.6 14.6 0 0 1-1.417 1.199l-.369.276c-.124.089-.259.161-.386.24-.262.155-.518.323-.78.464a13.3 13.3 0 0 1-1.634.712c-.545.199-1.102.361-1.669.485-.279.058-.562.089-.842.134l-.413.065c-.142.017-.28.017-.421.024l-.824.041c-.276 0-.548-.024-.817-.031-.53-.027-1.058-.09-1.58-.189a5.932 5.932 0 0 1-.755-.172c-.248-.068-.496-.12-.734-.199l-.69-.258-.345-.124-.345-.158-.648-.313c-.214-.099-.407-.237-.607-.343a7.094 7.094 0 0 1-.586-.361l-.538-.403a12.35 12.35 0 0 1-3.159-3.544 11.77 11.77 0 0 1-1.358-3.318 5.578 5.578 0 0 1-.155-.687c-.035-.217-.062-.42-.09-.605-.028-.186-.059-.344-.072-.523-.014-.179 0-.302-.018-.433 0-.258-.017-.454-.024-.591-.007-.138 0-.2 0-.2s0 .07.017.2c.018.13.025.344.038.588 0 .13.018.275.028.433.01.158.048.344.076.519l.096.602c.035.213.107.44.162.687.292 1.16.757 2.269 1.38 3.29a12.33 12.33 0 0 0 3.152 3.503l.534.396c.186.124.386.237.583.344.195.124.396.239.603.343l.642.306.344.155.345.127.69.251c.238.079.486.131.731.196.246.071.496.127.748.169.516.096 1.038.156 1.562.182.269 0 .538.034.807.031l.821-.045c.134 0 .276 0 .41-.024l.414-.065c.276-.045.555-.076.831-.134a13.01 13.01 0 0 0 1.652-.482c.552-.199 1.09-.435 1.61-.708.262-.141.514-.306.772-.457.125-.083.263-.151.38-.241l.365-.271c.493-.366.962-.764 1.404-1.19l.627-.688.159-.171.424-.568.286-.378.249-.406.248-.409.124-.202.107-.217c.138-.289.279-.578.417-.87.138-.292.224-.608.345-.91.405-1.26.618-2.571.634-3.893a13.072 13.072 0 0 0-.638-3.888l-.344-.91c-.142-.293-.28-.582-.421-.87l-.103-.217-.125-.203-.251-.41-.249-.405-.565-.756-.142-.186-.158-.175-.628-.688c-.441-.425-.91-.821-1.403-1.186l-.366-.271c-.12-.093-.255-.162-.379-.241-.259-.155-.51-.316-.772-.46a13.498 13.498 0 0 0-3.262-1.187c-.276-.058-.556-.09-.832-.137l-.41-.062c-.138-.017-.276-.017-.414-.028l-.82-.041c-.269 0-.538.02-.804.031-.525.023-1.048.084-1.565.182a5.527 5.527 0 0 0-.749.169c-.244.065-.493.117-.731.192l-.689.255-.345.123-.345.155-.641.306c-.214.1-.404.237-.604.344-.2.106-.393.23-.582.344l-.535.398a12.372 12.372 0 0 0-3.152 3.504 11.912 11.912 0 0 0-1.379 3.286c-.055.24-.134.46-.162.688-.028.227-.066.416-.097.605s-.058.344-.075.516c-.018.171-.021.305-.028.433l-.038.588a1.698 1.698 0 0 1-.014.206ZM183.052 52.731v-.203c0-.134 0-.343.024-.587l.017-.437c0-.158.045-.344.073-.52.027-.175.055-.391.089-.608.038-.232.09-.462.156-.687.281-1.169.74-2.288 1.362-3.318a12.374 12.374 0 0 1 3.155-3.544l.538-.403c.189-.123.389-.237.586-.343.196-.107.393-.255.61-.344l.645-.31.345-.158.345-.127.689-.258c.238-.079.49-.13.735-.2.248-.07.5-.128.755-.171a11.938 11.938 0 0 1 1.579-.186c.273 0 .542-.038.818-.034l.827.041c.138 0 .276 0 .417.028l.418.062c.275.044.558.079.841.134.565.127 1.121.289 1.665.484.56.2 1.105.439 1.632.715.265.141.52.306.779.461.131.083.265.151.389.244l.366.275c.5.368.975.769 1.421 1.2l.638.688.158.175.145.19.572.762.256.413.251.412.124.207.107.216c.142.292.283.588.428.88.145.293.224.616.345.925a12.27 12.27 0 0 1 0 7.87c-.114.309-.224.618-.345.924l-.424.88-.107.217-.128.206-.251.416-.252.41-.29.38-.286.386-.145.19-.158.174-.638.688c-.447.43-.92.83-1.418 1.2l-.369.275c-.124.09-.258.161-.386.24-.262.155-.517.324-.779.465-.528.273-1.074.51-1.635.711-.544.2-1.102.361-1.668.485-.28.058-.563.09-.842.134l-.414.065c-.141.018-.279.018-.42.025l-.824.04c-.276 0-.549-.023-.818-.03-.53-.028-1.057-.091-1.579-.19a6.181 6.181 0 0 1-.755-.171c-.248-.069-.497-.12-.735-.2l-.689-.257-.345-.124-.345-.158-.648-.313c-.214-.1-.407-.237-.607-.344a6.779 6.779 0 0 1-.586-.361l-.538-.402a12.35 12.35 0 0 1-3.159-3.545 11.74 11.74 0 0 1-1.358-3.317 5.586 5.586 0 0 1-.156-.688c-.034-.216-.062-.42-.089-.605-.028-.186-.059-.344-.073-.523-.014-.178 0-.302-.017-.433 0-.258-.017-.453-.024-.591-.007-.137 0-.2 0-.2s0 .07.017.2.024.344.038.588c0 .13.017.275.028.433.01.158.048.344.075.52l.097.6c.035.214.107.44.162.688.292 1.16.757 2.269 1.379 3.29A12.366 12.366 0 0 0 188 62.557l.535.395c.186.124.386.237.582.344.196.124.397.24.604.344l.641.306.345.154.345.128.69.25c.237.08.486.131.731.197.245.07.495.126.748.168a11.6 11.6 0 0 0 1.562.182c.269 0 .538.034.807.031l.82-.045c.135 0 .276 0 .411-.024l.414-.065c.275-.045.555-.076.831-.134.56-.124 1.112-.285 1.651-.481a12.785 12.785 0 0 0 1.611-.709c.262-.14.513-.306.772-.457.124-.082.262-.151.379-.24l.366-.272c.493-.366.962-.763 1.403-1.19l.628-.687.159-.172.424-.567.286-.378.248-.406.248-.41.125-.202.106-.217c.138-.288.28-.577.418-.87.138-.292.224-.608.345-.91.404-1.259.618-2.57.634-3.892a13.073 13.073 0 0 0-.638-3.889l-.345-.91c-.141-.293-.279-.582-.42-.87l-.104-.217-.124-.203-.252-.409-.248-.405-.566-.757-.141-.185-.159-.176-.627-.687a14.273 14.273 0 0 0-1.404-1.187l-.365-.271c-.121-.093-.255-.162-.379-.24-.259-.155-.511-.317-.773-.461a13.487 13.487 0 0 0-3.262-1.186c-.276-.059-.555-.09-.831-.138l-.41-.062c-.138-.017-.276-.017-.414-.027l-.821-.042c-.269 0-.538.021-.803.031-.526.024-1.049.085-1.566.183a5.465 5.465 0 0 0-.748.168c-.245.065-.493.117-.731.193l-.69.254-.344.124-.345.154-.642.306c-.213.1-.403.238-.603.344-.2.107-.393.23-.583.344l-.534.399a12.374 12.374 0 0 0-3.152 3.503 11.912 11.912 0 0 0-1.379 3.287c-.056.24-.135.46-.162.687-.028.227-.066.416-.097.605-.031.19-.059.344-.076.516-.017.172-.021.306-.027.433l-.038.588c-.004.138-.014.206-.014.206ZM178.834 15.723v-.203c0-.134 0-.344.024-.588l.018-.437c0-.158.044-.343.072-.519.028-.175.055-.392.09-.608.037-.232.089-.462.155-.688a11.745 11.745 0 0 1 1.362-3.317 12.388 12.388 0 0 1 3.155-3.545l.538-.402c.19-.124.39-.237.586-.344.197-.106.393-.254.61-.344l.645-.309.345-.158.345-.127.69-.258c.238-.08.489-.13.734-.2.248-.07.501-.128.755-.171a11.95 11.95 0 0 1 1.58-.186c.272 0 .541-.038.817-.034l.827.04c.138 0 .276 0 .418.028l.417.062c.276.045.558.08.841.134.565.128 1.121.29 1.666.485.56.2 1.105.439 1.631.715.265.141.52.306.779.46.131.083.266.152.39.245l.365.275c.5.367.975.768 1.421 1.2l.638.687.158.176.145.189.573.763.255.412.252.413.124.206.107.217c.141.292.282.588.427.88.145.292.224.615.345.925a12.27 12.27 0 0 1 0 7.87c-.114.308-.224.618-.345.924l-.424.88-.107.217-.127.206-.252.416-.252.409-.289.382-.287.385-.145.189-.158.175-.638.688c-.446.43-.92.83-1.417 1.2l-.369.274c-.124.09-.259.162-.386.241-.263.155-.518.323-.78.464-.528.274-1.074.511-1.634.712-.545.2-1.102.361-1.669.485-.28.058-.562.089-.842.134l-.413.065c-.142.017-.28.017-.421.024l-.824.041c-.276 0-.548-.024-.817-.03a11.873 11.873 0 0 1-1.58-.19 6.163 6.163 0 0 1-.755-.172c-.248-.068-.496-.12-.734-.199l-.69-.258-.345-.124-.345-.158-.648-.313c-.214-.1-.407-.237-.607-.343a6.908 6.908 0 0 1-.586-.361l-.538-.403a12.361 12.361 0 0 1-3.159-3.544 11.738 11.738 0 0 1-1.358-3.318 5.578 5.578 0 0 1-.155-.687c-.035-.217-.062-.42-.09-.605-.028-.186-.059-.344-.072-.523-.014-.179 0-.302-.018-.433 0-.258-.017-.454-.024-.591-.007-.138 0-.2 0-.2s0 .069.017.2c.018.13.025.344.038.588 0 .13.018.275.028.433.01.158.048.344.076.519l.096.601c.035.214.107.44.162.688a11.9 11.9 0 0 0 1.38 3.29 12.348 12.348 0 0 0 3.151 3.503l.535.396c.186.123.386.237.583.344.195.124.396.239.603.343l.641.306.345.155.345.127.69.251c.238.08.486.13.731.196.246.07.496.127.748.168.516.096 1.038.157 1.562.183.269 0 .538.034.807.03l.821-.044c.134 0 .276 0 .41-.024l.414-.065c.276-.045.555-.076.831-.135.56-.123 1.112-.284 1.652-.48a12.82 12.82 0 0 0 1.61-.709c.262-.14.514-.306.772-.457.124-.083.262-.151.38-.24l.365-.273c.493-.365.962-.763 1.404-1.189l.627-.688.159-.171.424-.568.286-.378.248-.405.249-.41.124-.203.107-.216c.138-.289.279-.578.417-.87.138-.292.224-.608.345-.91.405-1.26.618-2.571.634-3.893a13.072 13.072 0 0 0-.638-3.888l-.344-.91c-.142-.293-.28-.582-.421-.87l-.104-.217-.124-.203-.251-.41-.249-.405-.565-.756-.142-.186-.158-.175-.628-.688c-.441-.425-.91-.821-1.403-1.186l-.366-.271c-.12-.093-.255-.162-.379-.241-.259-.155-.51-.316-.772-.46a13.494 13.494 0 0 0-3.263-1.187c-.275-.058-.555-.09-.831-.137l-.41-.062c-.138-.017-.276-.017-.414-.028l-.82-.041c-.269 0-.538.02-.804.03-.525.024-1.049.085-1.565.183a5.524 5.524 0 0 0-.749.169c-.244.065-.493.116-.731.192l-.689.255-.345.123-.345.155-.641.306c-.214.1-.404.237-.604.344-.2.106-.393.23-.583.344l-.534.398a12.373 12.373 0 0 0-3.152 3.504 11.912 11.912 0 0 0-1.379 3.286c-.055.24-.135.46-.162.688-.028.227-.066.416-.097.605s-.058.344-.076.515c-.017.172-.02.307-.027.434l-.038.588c-.003.137-.014.206-.014.206Z"/><path fill="#263238" fill-opacity=".5" d="M8.438 89.74v-.203c0-.134 0-.344.025-.588l.017-.437c0-.158.045-.344.072-.519.028-.175.055-.392.09-.608.038-.233.09-.462.155-.688.282-1.169.741-2.288 1.362-3.318a12.388 12.388 0 0 1 3.155-3.544l.538-.402c.19-.124.39-.237.586-.344.197-.107.394-.254.61-.344l.646-.31.344-.157.345-.128.69-.257c.238-.08.49-.131.734-.2.249-.07.5-.128.756-.172.521-.097 1.049-.159 1.579-.185.272 0 .541-.038.817-.035l.828.041c.138 0 .276 0 .417.028l.417.062c.276.045.559.079.842.134.564.127 1.12.29 1.665.485.56.2 1.105.438 1.631.715.266.14.52.306.78.46.13.083.265.152.39.245l.365.275c.5.367.974.768 1.42 1.2l.638.687.159.175.145.19.572.763.255.412.252.413.124.206.107.217c.141.292.283.588.428.88.144.292.224.615.344.925a12.266 12.266 0 0 1 0 7.869c-.113.31-.224.619-.344.925l-.425.88-.107.216-.127.207-.252.416-.252.409-.29.381-.285.385-.145.19-.159.175-.638.687c-.446.43-.92.83-1.417 1.2l-.369.275c-.124.09-.259.162-.386.241-.262.155-.517.323-.78.464-.528.273-1.074.511-1.634.712-.544.199-1.102.361-1.669.484-.28.059-.562.09-.841.134l-.414.066c-.141.017-.28.017-.42.024l-.825.041c-.276 0-.548-.024-.817-.031a11.973 11.973 0 0 1-1.58-.189 6.103 6.103 0 0 1-.755-.172c-.248-.069-.496-.12-.734-.199l-.69-.258-.345-.124-.344-.158-.649-.313c-.213-.1-.406-.237-.607-.344a6.536 6.536 0 0 1-.586-.361l-.538-.402a12.355 12.355 0 0 1-3.158-3.544 11.759 11.759 0 0 1-1.359-3.318 5.59 5.59 0 0 1-.155-.688c-.035-.216-.062-.419-.09-.604-.027-.186-.058-.344-.072-.523-.014-.179 0-.303-.017-.433 0-.258-.018-.454-.025-.592-.006-.137 0-.199 0-.199s0 .069.018.2c.017.13.024.343.038.587 0 .13.017.275.027.433.01.159.049.344.076.52l.097.601c.034.213.107.44.162.688.291 1.16.756 2.268 1.379 3.29a12.355 12.355 0 0 0 3.152 3.503l.534.395c.186.124.386.238.583.344.195.125.397.24.603.344l.642.306.345.155.345.127.69.251c.237.079.485.131.73.196.246.071.496.127.748.168.516.096 1.038.157 1.563.182.268 0 .537.035.806.031l.821-.044c.134 0 .276 0 .41-.024l.414-.066c.276-.044.555-.075.831-.134.56-.124 1.113-.285 1.652-.481.552-.199 1.09-.436 1.61-.708.262-.141.514-.306.773-.457.124-.083.262-.152.379-.241l.366-.272a14.28 14.28 0 0 0 1.403-1.19l.627-.687.16-.172.423-.567.287-.378.248-.406.248-.409.124-.203.107-.216c.138-.29.28-.578.417-.87.138-.292.224-.609.345-.911.405-1.259.619-2.57.635-3.892a13.098 13.098 0 0 0-.638-3.888l-.345-.911-.42-.87-.104-.216-.124-.203-.252-.41-.248-.405-.566-.757-.141-.185-.159-.175-.628-.688c-.441-.425-.91-.821-1.403-1.186l-.365-.272c-.121-.092-.256-.161-.38-.24-.258-.155-.51-.317-.772-.461a13.487 13.487 0 0 0-3.262-1.186c-.276-.059-.555-.09-.831-.138l-.41-.061c-.138-.018-.276-.018-.414-.028l-.821-.041c-.269 0-.538.02-.803.03-.526.024-1.05.085-1.566.183a5.487 5.487 0 0 0-.748.168c-.245.066-.493.117-.731.193l-.69.254-.345.124-.345.155-.641.306c-.214.1-.403.237-.603.343-.2.107-.394.23-.583.344l-.535.4a12.368 12.368 0 0 0-3.151 3.502 11.923 11.923 0 0 0-1.38 3.287c-.055.24-.134.46-.162.688-.027.226-.065.416-.096.605s-.059.343-.076.515-.02.306-.028.433l-.038.588c-.003.138-.014.207-.014.207Z"/><path fill="#263238" d="M.003 60.301v-.203c0-.134 0-.343.024-.588l.017-.436c0-.158.045-.344.073-.52.027-.175.055-.391.09-.608.037-.232.089-.462.155-.687.281-1.17.74-2.288 1.362-3.318a12.39 12.39 0 0 1 3.155-3.544l.538-.403c.19-.123.39-.237.586-.343.197-.107.393-.255.61-.344l.645-.31.345-.158.345-.127.69-.258c.237-.079.49-.13.734-.2.248-.07.5-.128.755-.171.522-.097 1.05-.16 1.58-.186.272 0 .54-.038.817-.034l.827.041c.138 0 .276 0 .417.028l.418.061c.276.045.558.08.841.134a14.1 14.1 0 0 1 1.666.485c.56.2 1.105.439 1.63.715.266.141.521.306.78.461.131.083.265.151.39.244l.365.275c.5.368.975.768 1.42 1.2l.639.688.158.175.145.189.573.763.255.413.252.412.124.207.107.216c.14.292.282.588.427.88.145.292.224.616.345.925a12.266 12.266 0 0 1 0 7.87c-.114.309-.224.618-.345.924l-.424.88-.107.217-.128.206-.251.416-.252.41-.29.38-.286.386-.145.189-.158.175-.638.688c-.446.43-.92.83-1.417 1.2l-.37.275c-.123.09-.258.161-.386.24-.262.155-.517.323-.779.465-.528.273-1.074.51-1.634.711-.545.2-1.103.361-1.67.485-.279.058-.561.09-.84.134l-.415.065c-.14.017-.279.017-.42.024l-.824.042c-.276 0-.549-.025-.817-.031a11.89 11.89 0 0 1-1.58-.19 6.172 6.172 0 0 1-.755-.171c-.248-.07-.497-.12-.734-.2l-.69-.258-.345-.123-.345-.159-.648-.312c-.214-.1-.407-.237-.607-.344a6.883 6.883 0 0 1-.586-.361l-.538-.402A12.355 12.355 0 0 1 1.72 66.66a11.758 11.758 0 0 1-1.358-3.317 5.595 5.595 0 0 1-.155-.688c-.035-.216-.063-.42-.09-.605-.028-.186-.059-.344-.073-.523-.013-.178 0-.302-.017-.433 0-.258-.017-.453-.024-.591-.007-.138 0-.2 0-.2s0 .07.017.2c.018.13.024.344.038.588 0 .13.017.275.028.433.01.158.048.344.076.52l.096.6c.035.214.107.44.162.688.292 1.16.757 2.269 1.38 3.29a12.354 12.354 0 0 0 3.151 3.504l.535.395c.186.124.386.237.583.344.195.124.396.24.603.344l.641.306.345.154.345.127.69.251c.238.08.486.131.73.196.247.071.496.127.749.169.516.096 1.038.157 1.562.182.269 0 .538.034.807.031l.82-.045c.135 0 .276 0 .411-.024l.414-.065c.276-.045.555-.076.83-.134a13.07 13.07 0 0 0 1.653-.482c.552-.198 1.09-.435 1.61-.708.262-.14.514-.306.772-.457.124-.082.262-.151.38-.24l.365-.272c.493-.366.962-.763 1.404-1.19l.627-.687.159-.172.424-.567.286-.379.248-.405.249-.41.124-.202.107-.217c.138-.289.279-.577.417-.87.138-.292.224-.608.345-.91.404-1.26.618-2.57.634-3.892a13.101 13.101 0 0 0-.638-3.889l-.345-.91c-.14-.293-.279-.582-.42-.87l-.104-.217-.124-.203-.252-.409-.248-.406-.565-.756-.142-.186-.158-.175-.628-.688c-.442-.425-.91-.82-1.403-1.186l-.366-.271c-.12-.093-.255-.162-.38-.24-.258-.156-.51-.317-.772-.462a13.492 13.492 0 0 0-3.262-1.186c-.275-.058-.555-.089-.83-.137l-.411-.062c-.138-.017-.276-.017-.414-.028l-.82-.04c-.27 0-.538.02-.804.03-.525.024-1.049.085-1.566.182a5.473 5.473 0 0 0-.748.169c-.245.065-.493.117-.73.192l-.69.255-.345.124-.345.154-.641.306c-.214.1-.404.237-.604.344-.2.107-.393.23-.583.344l-.534.399a12.37 12.37 0 0 0-3.152 3.503 11.923 11.923 0 0 0-1.38 3.287c-.054.24-.134.46-.161.687-.028.227-.066.416-.097.605-.03.19-.058.344-.076.516-.017.172-.02.306-.027.433l-.038.588a1.866 1.866 0 0 1-.014.206Z"/><path fill="#F1511B" fill-opacity=".5" d="m13.88 25.039-5.497 3.294-3.304-5.483 5.498-3.294 3.304 5.483Z"/><path fill="#80CC28" fill-opacity=".5" d="m19.951 21.401-5.498 3.294-3.303-5.482 5.498-3.294 3.303 5.482Z"/><path fill="#00ADEF" fill-opacity=".5" d="m17.528 31.092-5.498 3.294-3.303-5.482 5.498-3.294 3.303 5.482Z"/><path fill="#FBBC09" fill-opacity=".5" d="M23.6 27.455 18.1 30.749l-3.304-5.482 5.498-3.295 3.304 5.483Z"/><path fill="#181616" fill-opacity=".5" fill-rule="evenodd" d="M12.653 53.513c-3.956 0-7.163 3.198-7.163 7.142 0 3.156 2.052 5.834 4.899 6.778.357.066.489-.155.489-.343 0-.17-.007-.733-.01-1.33-1.993.432-2.413-.843-2.413-.843-.326-.826-.796-1.045-.796-1.045-.65-.443.05-.434.05-.434.719.05 1.097.736 1.097.736.64 1.092 1.676.776 2.085.594.064-.462.25-.777.455-.956-1.591-.18-3.264-.792-3.264-3.53 0-.78.28-1.416.738-1.917-.074-.18-.32-.906.07-1.89 0 0 .6-.192 1.97.732a6.881 6.881 0 0 1 1.793-.24 6.897 6.897 0 0 1 1.795.24c1.367-.924 1.968-.732 1.968-.732.39.984.144 1.71.07 1.89.46.5.737 1.138.737 1.917 0 2.744-1.676 3.348-3.27 3.525.256.221.485.656.485 1.322 0 .956-.008 1.725-.008 1.96 0 .19.129.413.492.343 2.845-.945 4.895-3.622 4.895-6.777 0-3.944-3.208-7.142-7.164-7.142Z" clip-rule="evenodd"/><path fill="#181616" fill-opacity=".5" d="M8.203 63.768c-.016.035-.072.046-.123.022-.052-.023-.081-.072-.064-.107.015-.037.071-.047.123-.023.052.024.082.073.064.108Zm.29.323c-.034.031-.1.017-.146-.033-.047-.05-.056-.117-.021-.149.035-.031.1-.016.147.033.047.05.056.117.02.149Zm.283.411c-.044.03-.116.002-.16-.061-.044-.064-.044-.14 0-.17.045-.031.116-.004.16.06s.044.14 0 .171Zm.386.398c-.039.043-.122.031-.184-.028-.062-.057-.08-.14-.04-.182.04-.044.124-.031.185.027.063.057.081.14.04.183Zm.534.23c-.017.056-.098.082-.179.058-.08-.025-.134-.09-.117-.147.016-.056.097-.082.179-.057.081.024.134.09.117.146Zm.587.043c.002.059-.067.108-.152.109-.086.002-.155-.046-.156-.104 0-.06.067-.108.153-.11.085 0 .155.047.155.105Zm.545-.093c.01.058-.049.117-.134.133-.083.015-.16-.02-.17-.078-.01-.059.05-.118.133-.133.084-.014.16.02.171.079Z"/><path fill="#fff" fill-opacity=".5" d="M176.459 73.345a4.965 4.965 0 0 0-.989-.118c-.58 0-1.107.105-1.502.263-.04.026-.08.066-.08.118 0 .013 0 .04.014.053.039.131-.027.276-.409.355-.567.118-.909.696-1.12.893-.238.224-.91.368-.804.224.079-.105.382-.434.566-.789.172-.315.317-.407.515-.71.065-.092.289-.394.355-.644.079-.236.053-.538.079-.67.04-.184.211-.565.225-.788.013-.119-.515.184-.765.184s-.488-.145-.712-.158c-.276-.013-.448.21-.698.17-.145-.025-.264-.144-.514-.157-.356-.013-.791.197-1.608.17-.804-.025-1.542-1.011-1.648-1.169-.118-.184-.263-.184-.422-.04-.158.145-.355.027-.408-.065-.106-.184-.382-.723-.817-.828-.607-.157-.91.329-.87.723.039.394.29.5.408.71.119.21.185.341.396.433.158.066.211.158.171.29-.039.118-.211.144-.316.144a.76.76 0 0 1-.501-.131 1.248 1.248 0 0 1-.369-.408.674.674 0 0 0-.606-.328.68.68 0 0 0-.33.078c-.395.21-.87.33-1.371.33h-.566a8.221 8.221 0 0 0 7.802 5.571c2.887.04 5.431-1.445 6.894-3.706Z"/><path fill="#000" fill-opacity=".5" d="M176.459 73.345a4.155 4.155 0 0 0-.989-.118c-.58 0-1.107.105-1.502.263-.04.026-.08.066-.08.118 0 .013 0 .04.014.053.039.131-.027.276-.409.368-.567.118-.909.696-1.12.893-.238.224-.91.368-.804.224.079-.105.382-.434.566-.789.172-.315.317-.407.515-.71.065-.091.289-.394.355-.643.079-.237.053-.54.079-.67.04-.185.211-.566.225-.79.013-.117-.515.172-.765.172s-.488-.145-.712-.158c-.276-.013-.448.21-.698.17-.145-.025-.264-.144-.514-.157-.356-.013-.791.197-1.608.17-.804-.025-1.542-1.011-1.648-1.169-.118-.184-.263-.184-.422-.04-.158.145-.355.027-.408-.065-.106-.184-.382-.723-.817-.828-.607-.157-.91.329-.87.723.039.394.29.5.408.71.119.21.185.341.396.433.158.066.211.158.171.29-.039.118-.211.144-.316.144a.76.76 0 0 1-.501-.131 1.248 1.248 0 0 1-.369-.408.674.674 0 0 0-.606-.328.68.68 0 0 0-.33.078c-.395.21-.87.33-1.371.33h-.58a7.864 7.864 0 0 1-.421-2.59c0-4.534 3.677-8.2 8.224-8.2 4.547 0 8.225 3.666 8.225 8.2a8.191 8.191 0 0 1-1.318 4.455Zm-5.101-.749a.31.31 0 0 1 .026.355.818.818 0 0 1-.198.237c-.118.092-.342.197-.645 0-.172-.106-.172-.145-.409-.106-.158.027-.224-.144-.171-.276.066-.131.303-.25.606-.065.132.079.343.25.527.092a1.74 1.74 0 0 0 .224-.224l.013-.013c.027-.013.027 0 .027 0Z"/><path fill="#E93442" fill-opacity=".5" d="M168.906 64.593c-.949.065-1.054.17-1.225.354-.251.263-.58-.341-.58-.341-.198-.04-.435-.355-.304-.657.132-.29.369-.21.435-.119.093.105.277.29.528.29.25-.014.54-.053.935-.053.409 0 .686.145.699.276.013.118-.026.223-.488.25Zm1.002-1.564c-.013 0-.026-.014-.026-.027s0-.013.013-.026c.184-.092.461-.17.777-.21.093-.013.185-.013.277-.013h.053c.527.013.949.223.949.473-.013.25-.435.434-.962.42-.172 0-.33-.026-.475-.065-.013 0-.026-.014-.026-.04 0-.013.013-.026.026-.04.33-.078.554-.196.541-.315-.027-.157-.448-.236-.962-.184-.08.014-.132.027-.185.027Zm4.284 3.68c-.079.275-.198.617-.712.88-.079.04-.106-.026-.066-.079.198-.328.224-.407.29-.539.079-.184.119-.46-.04-1.025-.303-1.104-.949-2.589-1.423-3.075-.448-.46-1.279-.591-2.017-.407-.276.065-.804.341-1.792.118-1.714-.381-1.964.473-2.07.84-.105.369-.329 1.433-.329 1.433-.079.434-.185 1.183 2.478 1.683 1.239.236 1.305.552 1.357.788.093.408.251.644.435.762.172.119 0 .21-.197.237-.528.052-2.478-.5-3.638-1.157-.949-.578-.962-1.09-.738-1.537-1.424-.158-2.504.131-2.689.802-.343 1.182 2.531 3.154 5.813 4.14 3.44 1.038 6.985.315 7.381-1.84.184-.986-.646-1.71-2.043-2.025Z"/><path fill="#00A1E0" fill-opacity=".5" d="M19.29 85.432a2.71 2.71 0 0 1 1.959-.838c1.02 0 1.908.567 2.382 1.408a3.297 3.297 0 0 1 1.346-.285c1.838 0 3.328 1.499 3.328 3.347 0 1.849-1.49 3.348-3.328 3.348-.224 0-.444-.022-.657-.065a2.433 2.433 0 0 1-3.187.998 2.777 2.777 0 0 1-5.16-.125 2.586 2.586 0 0 1-3.107-2.54c0-.962.518-1.801 1.289-2.25a2.953 2.953 0 0 1-.247-1.187 2.993 2.993 0 0 1 2.999-2.986 2.994 2.994 0 0 1 2.384 1.175Z"/><path fill="#fff" fill-opacity=".5" d="M15.102 89.844c-.01.025.004.03.007.035.028.021.058.036.087.054a.938.938 0 0 0 .462.107c.317 0 .514-.168.514-.438v-.005c0-.25-.222-.341-.431-.406l-.028-.009c-.156-.05-.293-.094-.293-.197v-.005c0-.089.08-.153.202-.153.136 0 .298.044.402.102 0 0 .03.02.041-.01.006-.016.06-.157.064-.172.006-.017-.005-.03-.015-.035a.895.895 0 0 0-.453-.121h-.031c-.29 0-.493.174-.493.424v.005c0 .264.223.35.432.41l.034.01c.153.046.284.087.284.193v.005c0 .097-.085.171-.223.171a.75.75 0 0 1-.408-.117l-.052-.033c-.009-.006-.032-.015-.042.014l-.06.171Zm4.637 0c-.01.025.004.03.006.035.029.021.06.036.088.054a.937.937 0 0 0 .462.107c.317 0 .513-.168.513-.438v-.005c0-.25-.221-.341-.43-.406l-.028-.009c-.157-.05-.293-.094-.293-.197v-.005c0-.089.079-.153.202-.153.136 0 .298.044.401.102 0 0 .03.02.042-.01l.064-.172c.006-.017-.005-.03-.015-.035a.896.896 0 0 0-.454-.121h-.03c-.29 0-.493.174-.493.424v.005c0 .264.223.35.432.41l.034.01c.153.046.284.087.284.193v.005c0 .097-.085.171-.223.171a.75.75 0 0 1-.408-.117c-.023-.013-.035-.023-.053-.033-.006-.003-.032-.013-.04.014l-.061.171Zm3.164-.53a.65.65 0 0 1-.085.36c-.055.083-.14.124-.257.124-.117 0-.201-.041-.256-.125a.66.66 0 0 1-.084-.358c0-.153.027-.272.084-.357.055-.084.139-.124.256-.124.118 0 .202.04.258.124a.649.649 0 0 1 .084.357Zm.264-.283a.634.634 0 0 0-.12-.228.568.568 0 0 0-.203-.154.669.669 0 0 0-.283-.056.664.664 0 0 0-.283.056.581.581 0 0 0-.323.382.985.985 0 0 0-.039.284c0 .1.013.196.04.283a.633.633 0 0 0 .12.229.56.56 0 0 0 .202.152.693.693 0 0 0 .283.055.685.685 0 0 0 .283-.055.574.574 0 0 0 .323-.38.981.981 0 0 0 .04-.284.976.976 0 0 0-.04-.284Zm2.171.726c-.008-.026-.033-.017-.033-.017a.553.553 0 0 1-.123.035c-.044.007-.093.01-.145.01a.407.407 0 0 1-.303-.112c-.073-.075-.114-.196-.114-.36 0-.15.036-.263.101-.348.064-.085.163-.129.293-.129.11 0 .193.013.28.04 0 0 .02.01.03-.018l.066-.18c.007-.02-.01-.029-.016-.031a.944.944 0 0 0-.177-.044 1.32 1.32 0 0 0-.198-.014.72.72 0 0 0-.294.056.605.605 0 0 0-.342.383.902.902 0 0 0-.043.283c0 .218.06.396.177.524.116.13.293.196.522.196.136 0 .274-.027.375-.066 0 0 .018-.008.01-.031l-.066-.177Zm.464-.59a.518.518 0 0 1 .072-.21.285.285 0 0 1 .256-.13c.118 0 .195.046.25.13a.43.43 0 0 1 .06.21h-.638Zm.889-.186a.533.533 0 0 0-.286-.337.652.652 0 0 0-.256-.05.701.701 0 0 0-.296.056.591.591 0 0 0-.328.389.99.99 0 0 0-.039.284c0 .103.014.199.04.285a.595.595 0 0 0 .13.227.586.586 0 0 0 .226.149.9.9 0 0 0 .324.052c.258 0 .395-.058.451-.088.01-.005.019-.015.008-.043l-.06-.163c-.008-.024-.033-.015-.033-.015-.064.023-.155.066-.367.066-.139 0-.242-.041-.305-.105-.067-.065-.1-.161-.104-.297l.895.001s.024 0 .026-.024c.001-.012.031-.186-.026-.387Zm-8.056.186a.518.518 0 0 1 .072-.21.285.285 0 0 1 .256-.13c.117 0 .195.046.25.13a.445.445 0 0 1 .059.21h-.637Zm.89-.186a.55.55 0 0 0-.284-.337.652.652 0 0 0-.257-.05.701.701 0 0 0-.296.056.591.591 0 0 0-.328.389.99.99 0 0 0-.038.284c0 .103.013.199.04.285a.596.596 0 0 0 .13.227.588.588 0 0 0 .225.149.9.9 0 0 0 .325.052c.257 0 .394-.058.45-.088.01-.005.02-.015.008-.043l-.059-.163c-.009-.024-.034-.015-.034-.015-.064.023-.155.066-.367.066-.139 0-.241-.041-.305-.105-.067-.065-.1-.161-.104-.297l.895.001s.024 0 .026-.024c0-.012.03-.186-.027-.387Zm-2.825.77a.173.173 0 0 1-.051-.052.216.216 0 0 1-.027-.116c0-.079.027-.135.08-.172 0 0 .077-.068.26-.065.128.001.243.021.243.021v.406s-.114.024-.242.032c-.183.01-.263-.053-.263-.053Zm.357-.626a2.132 2.132 0 0 0-.14-.004c-.077 0-.15.01-.22.029a.57.57 0 0 0-.187.086.448.448 0 0 0-.13.147.435.435 0 0 0-.048.206c0 .08.014.148.041.204a.373.373 0 0 0 .117.14c.05.036.111.062.183.078.07.017.15.024.236.024.092 0 .183-.007.272-.022a4.572 4.572 0 0 0 .288-.06c.022-.005.02-.029.02-.029v-.817c0-.178-.048-.312-.143-.393-.094-.082-.232-.123-.41-.123-.068 0-.176.008-.24.022 0 0-.195.037-.275.1 0 0-.018.011-.008.035l.064.17c.008.022.029.015.029.015l.015-.008c.173-.093.39-.09.39-.09a.36.36 0 0 1 .221.056c.049.038.074.094.074.213v.037a4.46 4.46 0 0 0-.15-.016Zm7.217-.46a.025.025 0 0 0-.014-.032.75.75 0 0 0-.15-.026.449.449 0 0 0-.382.148v-.108a.027.027 0 0 0-.026-.028h-.23a.027.027 0 0 0-.026.028v1.33c0 .016.013.028.028.028h.235a.028.028 0 0 0 .028-.027v-.666c0-.088.01-.178.03-.234a.328.328 0 0 1 .079-.132.28.28 0 0 1 .11-.066.446.446 0 0 1 .22-.005c.017.003.026-.008.032-.023l.066-.187Z"/><path fill="#fff" fill-opacity=".5" d="M22.067 88.049a.696.696 0 0 0-.21-.03.516.516 0 0 0-.38.136c-.089.09-.15.226-.18.404l-.012.06h-.203s-.024 0-.03.026l-.033.187c-.003.017.005.028.029.028h.197l-.2 1.116c-.015.09-.034.164-.054.22a.481.481 0 0 1-.063.127.163.163 0 0 1-.08.063.345.345 0 0 1-.177.007c-.022-.003-.033-.008-.05-.014 0 0-.022-.01-.032.013l-.066.181c-.006.018.002.031.014.036a.564.564 0 0 0 .213.036.646.646 0 0 0 .219-.033.42.42 0 0 0 .165-.115.581.581 0 0 0 .116-.2c.032-.08.058-.182.08-.3l.2-1.137h.295s.025.002.03-.026l.034-.186c.002-.017-.005-.029-.029-.029h-.287c.002-.006.015-.107.048-.2a.257.257 0 0 1 .063-.096.184.184 0 0 1 .075-.046.328.328 0 0 1 .17-.006l.046.011c.03.009.034 0 .04-.013l.068-.188c.008-.021-.01-.03-.016-.032Zm-3.997 1.929a.027.027 0 0 1-.026.027h-.238c-.015 0-.025-.012-.025-.027v-1.904c0-.015.01-.028.025-.028h.238c.015 0 .026.013.026.028v1.904Z"/><path fill="#EA1B22" fill-opacity=".5" fill-rule="evenodd" d="M190.329 97.286a4.895 4.895 0 0 1-4.517-3.007 4.872 4.872 0 0 1 1.059-5.314 4.903 4.903 0 0 1 3.458-1.43h5.685a4.901 4.901 0 0 1 3.458 1.43 4.873 4.873 0 0 1 1.059 5.314 4.875 4.875 0 0 1-2.646 2.637 4.9 4.9 0 0 1-1.871.37h-5.685Zm5.559-1.72a3.169 3.169 0 0 0 2.238-.922 3.148 3.148 0 0 0 0-4.463 3.172 3.172 0 0 0-2.238-.927h-5.433c-.84.001-1.645.334-2.239.927a3.157 3.157 0 0 0-.685 3.44 3.147 3.147 0 0 0 1.713 1.706c.384.159.796.24 1.211.24h5.433Z" clip-rule="evenodd"/><path fill="url(#paint0_linear_5879_5859)" fill-opacity=".5" d="M185.194 18.98c-.131.206-.278.445-.402.636a.373.373 0 0 0-.044.291.39.39 0 0 0 .178.238l2.611 1.556a.416.416 0 0 0 .45-.018.406.406 0 0 0 .107-.114c.104-.17.239-.39.385-.624 1.035-1.654 2.075-1.451 3.951-.584l2.588 1.192a.418.418 0 0 0 .449-.068.396.396 0 0 0 .092-.126l1.243-2.723a.377.377 0 0 0 .007-.295.392.392 0 0 0-.208-.215c-.546-.249-1.633-.745-2.611-1.202-3.518-1.655-6.509-1.548-8.796 2.056Z"/><path fill="url(#paint1_linear_5879_5859)" fill-opacity=".5" d="M196.9 12.8c.131-.206.278-.445.402-.636a.373.373 0 0 0 .044-.29.39.39 0 0 0-.178-.239l-2.611-1.556a.415.415 0 0 0-.464.01.404.404 0 0 0-.109.119l-.385.624c-1.035 1.653-2.075 1.451-3.951.584l-2.58-1.187a.42.42 0 0 0-.313-.013.396.396 0 0 0-.228.208l-1.243 2.723a.376.376 0 0 0-.007.294.395.395 0 0 0 .208.215c.546.25 1.633.745 2.611 1.202 3.526 1.654 6.517 1.543 8.804-2.058Z"/><path fill="#FF385C" fill-opacity=".5" d="M200.782 58.315c.011-.202.009-.403.005-.59a47.098 47.098 0 0 0-.027-.858l-.001-.022c-.092-2.505-.244-5.07-.452-7.62l-.009-.11c-.021-.26-.042-.53-.069-.796a4.599 4.599 0 0 0-.181-.986 2.607 2.607 0 0 0-3.638-1.54c-.299.156-.579.342-.837.556-.212.168-.424.34-.628.508l-.079.064a173.874 173.874 0 0 0-5.811 4.97l-.028.024c-.206.185-.419.375-.627.568a8.258 8.258 0 0 0-.422.413 3.3 3.3 0 0 0-.807 1.428 3.188 3.188 0 0 0 .014 1.66c.151.544.443 1.041.848 1.443a3.376 3.376 0 0 0 1.448.847 4.19 4.19 0 0 0 1.626.13c.711-.073 1.477-.298 2.38-.7.337.927.707 1.633 1.147 2.194.332.434.749.8 1.224 1.075a3.383 3.383 0 0 0 1.618.45 3.288 3.288 0 0 0 1.63-.394 3.2 3.2 0 0 0 1.206-1.143 3.29 3.29 0 0 0 .47-1.57Zm-6.711-1.985c-.36-1.281-.475-2.378-.331-3.196.048-.31.155-.606.315-.875a1.5 1.5 0 0 1 .477-.487c.228-.126.483-.198.745-.211a1.748 1.748 0 0 1 1.398.592c.173.197.298.43.366.68.045.227.038.46-.021.682a2.443 2.443 0 0 1-.413.833c-.49.671-1.361 1.35-2.536 1.982Zm5.398 3.05c-.205.336-.496.611-.844.8a2.297 2.297 0 0 1-1.14.275 2.432 2.432 0 0 1-1.146-.32 3.15 3.15 0 0 1-.931-.824c-.391-.5-.725-1.152-1.037-2.036 1.407-.732 2.428-1.523 3.036-2.355a3.41 3.41 0 0 0 .567-1.161c.094-.363.104-.743.028-1.111a2.682 2.682 0 0 0-.57-1.103 2.742 2.742 0 0 0-2.243-.95c-.42.026-.828.148-1.191.358a2.449 2.449 0 0 0-.781.792 3.378 3.378 0 0 0-.444 1.212c-.179 1.015-.041 2.297.409 3.815-.854.39-1.557.604-2.189.67a3.16 3.16 0 0 1-1.241-.095 2.436 2.436 0 0 1-1.028-.6 2.284 2.284 0 0 1-.593-1.009 2.227 2.227 0 0 1-.009-1.16c.104-.385.304-.737.583-1.023.111-.118.228-.23.371-.363.202-.187.413-.374.616-.556l.027-.025a172.706 172.706 0 0 1 5.78-4.942l.078-.064c.201-.165.409-.335.615-.497a3.76 3.76 0 0 1 .662-.445 1.59 1.59 0 0 1 .669-.171c.352-.011.699.093.987.297.288.204.5.496.603.83.074.256.121.518.139.783.025.258.047.523.068.78l.008.108c.207 2.538.358 5.088.45 7.579l.001.022c.01.277.021.563.026.843.004.194.005.356-.004.517a2.332 2.332 0 0 1-.332 1.13Z"/><defs><linearGradient id="paint0_linear_5879_5859" x1="20621.1" x2="11460.8" y1="17244.3" y2="2946.01" gradientUnits="userSpaceOnUse"><stop offset=".18" stop-color="#0052CC"/><stop offset="1" stop-color="#2684FF"/></linearGradient><linearGradient id="paint1_linear_5879_5859" x1="192.608" x2="9350.31" y1="-1925.05" y2="12362.7" gradientUnits="userSpaceOnUse"><stop offset=".18" stop-color="#0052CC"/><stop offset="1" stop-color="#2684FF"/></linearGradient></defs></svg>